<svg xmlns="http://www.w3.org/2000/svg" version="1.1" xmlnsXlink="http://www.w3.org/1999/xlink" xmlnsSvgjs="http://svgjs.com/svgjs" width="512" height="512" x="0" y="0" viewBox="0 0 64 64" style="enable-background:new 0 0 512 512" xml:space="preserve" class=""><g><title>01 Agreement Document</title><g id="_01_Agreement_Document" data-name="01 Agreement Document"><path d="M53,3H16a2,2,0,0,0-2,2V8H11a2,2,0,0,0-2,2V58a2,2,0,0,0,2,2H25.278A1.993,1.993,0,0,0,27,61H41a1.993,1.993,0,0,0,1.722-1H48a2,2,0,0,0,2-2V55h3a2,2,0,0,0,2-2V5A2,2,0,0,0,53,3ZM30.708,43.879A2.4,2.4,0,0,1,30,42.171V38.215a4.149,4.149,0,0,1,3.6-4.2A4,4,0,0,1,38,38v4.171a2.4,2.4,0,0,1-.707,1.708A4.382,4.382,0,0,0,36,47v4H32V47A4.386,4.386,0,0,0,30.708,43.879ZM31,53h9a3.006,3.006,0,0,1,2.829,2H25.171A3.006,3.006,0,0,1,28,53Zm-4,6V57H41v2Zm21-1H43V57h1a1,1,0,0,0,1-1,5.006,5.006,0,0,0-5-5H38V47a2.429,2.429,0,0,1,.708-1.707A4.391,4.391,0,0,0,40,42.171V38a6,6,0,0,0-6.586-5.972A6.163,6.163,0,0,0,28,38.215v3.956a4.388,4.388,0,0,0,1.293,3.122A2.432,2.432,0,0,1,30,47v4H28a5.006,5.006,0,0,0-5,5,1,1,0,0,0,1,1h1v1H11V10H48V58Zm5-5H50V10a2,2,0,0,0-2-2H16V5H53Z" fill="#508345" data-original="#000000" class=""></path><path d="M15,16H26a1,1,0,0,0,0-2H15a1,1,0,0,0,0,2Z" fill="#508345" data-original="#000000" class=""></path><path d="M15,21H25a1,1,0,0,0,0-2H15a1,1,0,0,0,0,2Z" fill="#508345" data-original="#000000" class=""></path><path d="M15,26h4a1,1,0,0,0,0-2H15a1,1,0,0,0,0,2Z" fill="#508345" data-original="#000000" class=""></path><path d="M28,29H15a1,1,0,0,0,0,2H28a1,1,0,0,0,0-2Z" fill="#508345" data-original="#000000" class=""></path><path d="M25,34H15a1,1,0,0,0,0,2H25a1,1,0,0,0,0-2Z" fill="#508345" data-original="#000000" class=""></path><path d="M25,39H15a1,1,0,0,0,0,2H25a1,1,0,0,0,0-2Z" fill="#508345" data-original="#000000" class=""></path><path d="M19,44H15a1,1,0,0,0,0,2h4a1,1,0,0,0,0-2Z" fill="#508345" data-original="#000000" class=""></path><path d="M40.293,18.293,36,22.586l-2.293-2.293a1,1,0,0,0-1.414,1.414l3,3a1,1,0,0,0,1.414,0l5-5a1,1,0,0,0-1.414-1.414Z" fill="#508345" data-original="#000000" class=""></path><path d="M37,12a9,9,0,1,0,9,9A9.011,9.011,0,0,0,37,12Zm0,16a7,7,0,1,1,7-7A7.008,7.008,0,0,1,37,28Z" fill="#508345" data-original="#000000" class=""></path></g></g></svg>
