<svg xmlns="http://www.w3.org/2000/svg" version="1.1" xmlnsXlink="http://www.w3.org/1999/xlink" xmlnsSvgjs="http://svgjs.com/svgjs" width="512" height="512" x="0" y="0" viewBox="0 0 682.66669 682.66669" style="enable-background:new 0 0 512 512" xml:space="preserve" class=""><g><defs id="defs3478"><clipPath clipPathUnits="userSpaceOnUse" id="clipPath3488"><path d="M 0,512 H 512 V 0 H 0 Z" id="path3486" fill="#508345" data-original="#000000"></path></clipPath></defs><g id="g3480" transform="matrix(1.3333333,0,0,-1.3333333,0,682.66667)"><g id="g3482"><g id="g3484" clip-path="url(#clipPath3488)"><g id="g3490" transform="translate(27,151)"><path d="m 0,0 v 133.264 c 0,18.218 14.768,32.986 32.986,32.986 H 89" style="stroke-width:15;stroke-linecap:round;stroke-linejoin:round;stroke-miterlimit:10;stroke-dasharray:none;stroke-opacity:1" id="path3492" fill="none" stroke="#508345" stroke-width="15" stroke-linecap="round" stroke-linejoin="round" stroke-miterlimit="10" stroke-dasharray="none" stroke-opacity="" data-original="#000000" class=""></path></g><g id="g3494" transform="translate(394.0003,317.25)"><path d="M 0,0 H 58.014 C 76.231,0 91,-14.768 91,-32.986 V -258.5 h -458 v 52.25" style="stroke-width:15;stroke-linecap:round;stroke-linejoin:round;stroke-miterlimit:10;stroke-dasharray:none;stroke-opacity:1" id="path3496" fill="none" stroke="#508345" stroke-width="15" stroke-linecap="round" stroke-linejoin="round" stroke-miterlimit="10" stroke-dasharray="none" stroke-opacity="" data-original="#000000" class=""></path></g><g id="g3498" transform="translate(392.0001,284.4182)"><path d="M 0,0 H 63 V -225.668 H -335 V 0 h 61" style="stroke-width:15;stroke-linecap:round;stroke-linejoin:round;stroke-miterlimit:10;stroke-dasharray:none;stroke-opacity:1" id="path3500" fill="none" stroke="#508345" stroke-width="15" stroke-linecap="round" stroke-linejoin="round" stroke-miterlimit="10" stroke-dasharray="none" stroke-opacity="" data-original="#000000" class=""></path></g><g id="g3502" transform="translate(409.9999,10.75)"><path d="M 0,0 H -372.861 C -389.23,0 -402.5,13.27 -402.5,29.639 V 48 h 497 V 29.639 C 94.5,13.27 81.23,0 64.861,0 H 42" style="stroke-width:15;stroke-linecap:round;stroke-linejoin:round;stroke-miterlimit:10;stroke-dasharray:none;stroke-opacity:1" id="path3504" fill="none" stroke="#508345" stroke-width="15" stroke-linecap="round" stroke-linejoin="round" stroke-miterlimit="10" stroke-dasharray="none" stroke-opacity="" data-original="#000000" class=""></path></g><g id="g3506" transform="translate(223.5,58.75)"><path d="M 0,0 V -7.605 C 0,-16.936 7.564,-24.5 16.895,-24.5 h 31.21 C 57.436,-24.5 65,-16.936 65,-7.605 V 0 Z" style="stroke-width:15;stroke-linecap:round;stroke-linejoin:round;stroke-miterlimit:10;stroke-dasharray:none;stroke-opacity:1" id="path3508" fill="none" stroke="#508345" stroke-width="15" stroke-linecap="round" stroke-linejoin="round" stroke-miterlimit="10" stroke-dasharray="none" stroke-opacity="" data-original="#000000" class=""></path></g><g id="g3510" transform="translate(344.9474,197.25)"><path d="M 0,0 C 25.434,0 46.053,20.618 46.053,46.053 V 159" style="stroke-width:15;stroke-linecap:round;stroke-linejoin:round;stroke-miterlimit:10;stroke-dasharray:none;stroke-opacity:1" id="path3512" fill="none" stroke="#508345" stroke-width="15" stroke-linecap="round" stroke-linejoin="round" stroke-miterlimit="10" stroke-dasharray="none" stroke-opacity="" data-original="#000000" class=""></path></g><g id="g3514" transform="translate(354.9991,395.1498)"><path d="m 0,0 c -3.236,0.72 -6.599,1.1 -10.052,1.1 h -180.895 c -25.434,0 -46.052,-20.618 -46.052,-46.052 v -106.895 c 0,-25.434 20.618,-46.053 46.052,-46.053 v -64 l 64,64 h 77.948" style="stroke-width:15;stroke-linecap:round;stroke-linejoin:round;stroke-miterlimit:10;stroke-dasharray:none;stroke-opacity:1" id="path3516" fill="none" stroke="#508345" stroke-width="15" stroke-linecap="round" stroke-linejoin="round" stroke-miterlimit="10" stroke-dasharray="none" stroke-opacity="" data-original="#000000" class=""></path></g><g id="g3518" transform="translate(339.1714,285.2466)"><path d="m 0,0 -41.966,-14.979 1.042,44.546 127.14,175.974 c 8.165,11.301 23.945,13.843 35.246,5.679 v 0 c 11.3,-8.165 13.843,-23.945 5.678,-35.246 z" style="stroke-width:15;stroke-linecap:round;stroke-linejoin:round;stroke-miterlimit:10;stroke-dasharray:none;stroke-opacity:1" id="path3520" fill="none" stroke="#508345" stroke-width="15" stroke-linecap="round" stroke-linejoin="round" stroke-miterlimit="10" stroke-dasharray="none" stroke-opacity="" data-original="#000000" class=""></path></g><g id="g3522" transform="translate(407.0468,463.8357)"><path d="m 0,0 40.679,-29.39 c 12.053,-8.708 14.764,-25.538 6.056,-37.591 L 14.657,-111.38" style="stroke-width:15;stroke-linecap:round;stroke-linejoin:round;stroke-miterlimit:10;stroke-dasharray:none;stroke-opacity:1" id="path3524" fill="none" stroke="#508345" stroke-width="15" stroke-linecap="round" stroke-linejoin="round" stroke-miterlimit="10" stroke-dasharray="none" stroke-opacity="" data-original="#000000" class=""></path></g><g id="g3526" transform="translate(298.2472,314.8141)"><path d="M 0,0 40.924,-29.567" style="stroke-width:15;stroke-linecap:round;stroke-linejoin:round;stroke-miterlimit:10;stroke-dasharray:none;stroke-opacity:1" id="path3528" fill="none" stroke="#508345" stroke-width="15" stroke-linecap="round" stroke-linejoin="round" stroke-miterlimit="10" stroke-dasharray="none" stroke-opacity="" data-original="#000000" class=""></path></g><g id="g3530" transform="translate(176,270.2673)"><path d="M 0,0 H 83" style="stroke-width:15;stroke-linecap:round;stroke-linejoin:round;stroke-miterlimit:10;stroke-dasharray:none;stroke-opacity:1" id="path3532" fill="none" stroke="#508345" stroke-width="15" stroke-linecap="round" stroke-linejoin="round" stroke-miterlimit="10" stroke-dasharray="none" stroke-opacity="" data-original="#000000" class=""></path></g><g id="g3534" transform="translate(176,323.241)"><path d="M 0,0 H 83" style="stroke-width:15;stroke-linecap:round;stroke-linejoin:round;stroke-miterlimit:10;stroke-dasharray:none;stroke-opacity:1" id="path3536" fill="none" stroke="#508345" stroke-width="15" stroke-linecap="round" stroke-linejoin="round" stroke-miterlimit="10" stroke-dasharray="none" stroke-opacity="" data-original="#000000" class=""></path></g></g></g></g></g></svg>
