<?xml version="1.0" encoding="UTF-8" standalone="no"?>
<!-- Created with Inkscape (http://www.inkscape.org/) -->

<svg
   version="1.1"
   id="svg3447"
   xmlSpace="preserve"
   width="682.66669"
   height="682.66669"
   viewBox="0 0 682.66669 682.66669"
   xmlns="http://www.w3.org/2000/svg"
   xmlnsSvg="http://www.w3.org/2000/svg"><defs
     id="defs3451"><clipPath
       clipPathUnits="userSpaceOnUse"
       id="clipPath3461"><path
         d="M 0,512 H 512 V 0 H 0 Z"
         id="path3459" /></clipPath></defs><g
     id="g3453"
     transform="matrix(1.3333333,0,0,-1.3333333,0,682.66667)"><g
       id="g3455"><g
         id="g3457"
         clip-path="url(#clipPath3461)"><g
           id="g3463"
           transform="translate(255.9854,68.7832)"><path
             d="M 0,0 C 33.194,19.238 144.397,30.374 210.53,0"
             style="fill:none;stroke:#000000;stroke-width:15.118;stroke-linecap:round;stroke-linejoin:round;stroke-miterlimit:10;stroke-dasharray:none;stroke-opacity:1"
             id="path3465" /></g><g
           id="g3467"
           transform="translate(255.9854,68.7832)"><path
             d="M 0,0 C -33.165,19.238 -144.396,30.374 -210.501,0"
             style="fill:none;stroke:#000000;stroke-width:15.118;stroke-linecap:round;stroke-linejoin:round;stroke-miterlimit:10;stroke-dasharray:none;stroke-opacity:1"
             id="path3469" /></g><g
           id="g3471"
           transform="translate(373.8223,10.6416)"><path
             d="m 0,0 87.902,0.113 c 27.554,0.029 42.776,19.891 42.776,40.829 v 263.111 c 0,16.547 -13.55,30.09 -30.105,30.09 h -7.88 M -117.837,58.142 V -0.142 l 82.801,0.085"
             style="fill:none;stroke:#000000;stroke-width:15.118;stroke-linecap:round;stroke-linejoin:round;stroke-miterlimit:10;stroke-dasharray:none;stroke-opacity:1"
             id="path3473" /></g><g
           id="g3475"
           transform="translate(215.4219,198.5527)"><path
             d="M 0,0 C -20.693,12.014 -89.972,18.955 -131.187,0"
             style="fill:none;stroke:#000000;stroke-width:15.118;stroke-linecap:round;stroke-linejoin:round;stroke-miterlimit:10;stroke-dasharray:none;stroke-opacity:1"
             id="path3477" /></g><g
           id="g3479"
           transform="translate(215.4219,143.0752)"><path
             d="M 0,0 C -20.693,12.014 -89.972,18.955 -131.187,0"
             style="fill:none;stroke:#000000;stroke-width:15.118;stroke-linecap:round;stroke-linejoin:round;stroke-miterlimit:10;stroke-dasharray:none;stroke-opacity:1"
             id="path3481" /></g><g
           id="g3483"
           transform="translate(215.4219,254.0312)"><path
             d="M 0,0 C -20.693,12.013 -89.972,18.983 -131.187,0"
             style="fill:none;stroke:#000000;stroke-width:15.118;stroke-linecap:round;stroke-linejoin:round;stroke-miterlimit:10;stroke-dasharray:none;stroke-opacity:1"
             id="path3485" /></g><g
           id="g3487"
           transform="translate(255.9854,10.5)"><path
             d="m 0,0 -205.71,0.255 c -27.582,0.028 -42.775,19.891 -42.775,40.829 v 263.11 c 0,16.547 13.521,30.09 30.076,30.09 h 7.908"
             style="fill:none;stroke:#000000;stroke-width:15.118;stroke-linecap:round;stroke-linejoin:round;stroke-miterlimit:10;stroke-dasharray:none;stroke-opacity:1"
             id="path3489" /></g><g
           id="g3491"
           transform="translate(129.0781,382.7803)"><path
             d="m 0,0 c -25.993,-1.416 -43.2,-4.137 -59.669,-8.812 -17.858,-5.072 -23.925,-6.686 -23.925,-21.76 v -287.562 c 0,-8.784 7.002,-15.98 15.563,-15.98 h 194.938 m 0,316.405 C 112.395,-9.293 82.942,-2.437 37.19,0.057"
             style="fill:none;stroke:#000000;stroke-width:15.118;stroke-linecap:round;stroke-linejoin:round;stroke-miterlimit:10;stroke-dasharray:none;stroke-opacity:1"
             id="path3493" /></g><g
           id="g3495"
           transform="translate(296.5781,198.5527)"><path
             d="M 0,0 C 20.665,12.014 89.972,18.955 131.159,0"
             style="fill:none;stroke:#000000;stroke-width:15.118;stroke-linecap:round;stroke-linejoin:round;stroke-miterlimit:10;stroke-dasharray:none;stroke-opacity:1"
             id="path3497" /></g><g
           id="g3499"
           transform="translate(296.5781,143.0752)"><path
             d="M 0,0 C 20.665,12.014 89.972,18.955 131.159,0"
             style="fill:none;stroke:#000000;stroke-width:15.118;stroke-linecap:round;stroke-linejoin:round;stroke-miterlimit:10;stroke-dasharray:none;stroke-opacity:1"
             id="path3501" /></g><g
           id="g3503"
           transform="translate(255.9854,68.7832)"><path
             d="M 0,0 C 33.194,19.238 144.397,30.374 210.53,0"
             style="fill:none;stroke:#000000;stroke-width:15.118;stroke-linecap:round;stroke-linejoin:round;stroke-miterlimit:10;stroke-dasharray:none;stroke-opacity:1"
             id="path3505" /></g><g
           id="g3507"
           transform="translate(255.9854,68.7832)"><path
             d="M 0,0 C -33.165,19.238 -144.396,30.374 -210.501,0"
             style="fill:none;stroke:#000000;stroke-width:15.118;stroke-linecap:round;stroke-linejoin:round;stroke-miterlimit:10;stroke-dasharray:none;stroke-opacity:1"
             id="path3509" /></g><g
           id="g3511"
           transform="translate(255.9854,365.0713)"><path
             d="M 0,0 V -296.288"
             style="fill:none;stroke:#000000;stroke-width:15.118;stroke-linecap:round;stroke-linejoin:round;stroke-miterlimit:10;stroke-dasharray:none;stroke-opacity:1"
             id="path3513" /></g><g
           id="g3515"
           transform="translate(355.2842,299.5918)"><path
             d="M 0,0 V 67.491"
             style="fill:none;stroke:#000000;stroke-width:15.118;stroke-linecap:round;stroke-linejoin:round;stroke-miterlimit:10;stroke-dasharray:none;stroke-opacity:1"
             id="path3517" /></g><g
           id="g3519"
           transform="translate(374.7012,367.083)"><path
             d="M 0,0 H -19.417 -39.601"
             style="fill:none;stroke:#000000;stroke-width:15.118;stroke-linecap:round;stroke-linejoin:round;stroke-miterlimit:10;stroke-dasharray:none;stroke-opacity:1"
             id="path3521" /></g><g
           id="g3523"
           transform="translate(355.3408,481.666)"><path
             d="M 0,0 V 19.834"
             style="fill:none;stroke:#000000;stroke-width:15.118;stroke-linecap:round;stroke-linejoin:round;stroke-miterlimit:10;stroke-dasharray:none;stroke-opacity:1"
             id="path3525" /></g><g
           id="g3527"
           transform="translate(276.9619,478.0391)"><path
             d="M 0,0 14.061,-14.054"
             style="fill:none;stroke:#000000;stroke-width:15.118;stroke-linecap:round;stroke-linejoin:round;stroke-miterlimit:10;stroke-dasharray:none;stroke-opacity:1"
             id="path3529" /></g><g
           id="g3531"
           transform="translate(433.6904,478.0391)"><path
             d="M 0,0 -14.031,-14.054"
             style="fill:none;stroke:#000000;stroke-width:15.118;stroke-linecap:round;stroke-linejoin:round;stroke-miterlimit:10;stroke-dasharray:none;stroke-opacity:1"
             id="path3533" /></g><g
           id="g3535"
           transform="translate(331.6992,299.5918)"><path
             d="m 0,0 h 47.197 c 10.205,0 18.568,-8.358 18.568,-18.559 0,-10.2 -8.363,-18.53 -18.568,-18.53 H 0 c -10.232,0 -18.566,8.33 -18.566,18.53 C -18.566,-8.358 -10.232,0 0,0 Z"
             style="fill:none;stroke:#000000;stroke-width:15.118;stroke-linecap:round;stroke-linejoin:round;stroke-miterlimit:10;stroke-dasharray:none;stroke-opacity:1"
             id="path3537" /></g><g
           id="g3539"
           transform="translate(329.8857,299.5918)"><path
             d="m 0,0 h 25.398 25.427 c 0,40.857 39.571,46.128 39.515,90.074 -0.057,41.877 -32.486,62.477 -64.942,61.994 C -7.03,152.551 -39.459,131.951 -39.516,90.074 -39.572,46.128 0,40.857 0,0 Z"
             style="fill:none;stroke:#000000;stroke-width:15.118;stroke-linecap:round;stroke-linejoin:round;stroke-miterlimit:10;stroke-dasharray:none;stroke-opacity:1"
             id="path3541" /></g><g
           id="g3543"
           transform="translate(419.4033,379.125)"><path
             d="m 0,0 c 8.334,-1.359 15.846,-3.06 23.159,-5.156 17.887,-5.073 23.953,-6.687 23.953,-21.761 v -287.562 c 0,-8.784 -7.03,-15.98 -15.591,-15.98 h -194.939 m 0,316.405 c 7.654,4.45 19.475,8.445 35.66,11.589"
             style="fill:none;stroke:#000000;stroke-width:15.118;stroke-linecap:round;stroke-linejoin:round;stroke-miterlimit:10;stroke-dasharray:none;stroke-opacity:1"
             id="path3545" /></g><g
           id="g3547"
           transform="translate(215.4219,309.5371)"><path
             d="M 0,0 C -20.693,11.985 -89.972,18.955 -131.187,0"
             style="fill:none;stroke:#000000;stroke-width:15.118;stroke-linecap:round;stroke-linejoin:round;stroke-miterlimit:10;stroke-dasharray:none;stroke-opacity:1"
             id="path3549" /></g></g></g></g></svg>
