<svg xmlns="http://www.w3.org/2000/svg" version="1.1" xmlnsXlink="http://www.w3.org/1999/xlink" xmlnsSvgjs="http://svgjs.com/svgjs" width="512" height="512" x="0" y="0" viewBox="0 0 682.66669 682.66669" style="enable-background:new 0 0 512 512" xml:space="preserve" class=""><g>
  <defs id="defs1333">
    <clipPath clipPathUnits="userSpaceOnUse" id="clipPath1355">
      <path d="M 0,512 H 512 V 0 H 0 Z" id="path1353" fill="#508345" data-original="#000000"></path>
    </clipPath>
  </defs>
  <mask id="custom"><rect id="bg" x="0" y="0" width="100%" height="100%" fill="white" data-original="#ffffff"></rect><g transform="matrix(1.3333333,0,0,-1.3333333,0,682.66667)"></g></mask><g mask="url(#custom)"><g id="g1335" transform="matrix(1.3333333,0,0,-1.3333333,0,682.66667)">
    <g id="g1337" transform="translate(120,399)">
      <path d="M 0,0 H 272" style="stroke-width:40;stroke-linecap:round;stroke-linejoin:round;stroke-miterlimit:10;stroke-dasharray:none;stroke-opacity:1" id="path1339" fill="none" stroke="#508345" stroke-width="40" stroke-linecap="round" stroke-linejoin="round" stroke-miterlimit="10" stroke-dasharray="none" stroke-opacity="" data-original="#000000" class=""></path>
    </g>
    <g id="g1341" transform="translate(120,319)">
      <path d="M 0,0 H 272" style="stroke-width:40;stroke-linecap:round;stroke-linejoin:round;stroke-miterlimit:10;stroke-dasharray:none;stroke-opacity:1" id="path1343" fill="none" stroke="#508345" stroke-width="40" stroke-linecap="round" stroke-linejoin="round" stroke-miterlimit="10" stroke-dasharray="none" stroke-opacity="" data-original="#000000" class=""></path>
    </g>
    <g id="g1345" transform="translate(120,239)">
      <path d="M 0,0 H 92" style="stroke-width:40;stroke-linecap:round;stroke-linejoin:round;stroke-miterlimit:10;stroke-dasharray:none;stroke-opacity:1" id="path1347" fill="none" stroke="#508345" stroke-width="40" stroke-linecap="round" stroke-linejoin="round" stroke-miterlimit="10" stroke-dasharray="none" stroke-opacity="" data-original="#000000" class=""></path>
    </g>
    <g id="g1349">
      <g id="g1351" clip-path="url(#clipPath1355)">
        <g id="g1357" transform="translate(314.3618,141.2754)">
          <path d="M 0,0 -22.362,80.725 56.363,56.813 165.922,-52.991 c 15.621,-15.621 15.621,-40.947 0,-56.569 -15.621,-15.621 -40.947,-15.621 -56.568,0 z" style="stroke-width:40;stroke-linecap:butt;stroke-linejoin:round;stroke-miterlimit:10;stroke-dasharray:none;stroke-opacity:1" id="path1359" fill="none" stroke="#508345" stroke-width="40" stroke-linecap="butt" stroke-linejoin="round" stroke-miterlimit="10" stroke-dasharray="none" stroke-opacity="" data-original="#000000" class=""></path>
        </g>
        <g id="g1361" transform="translate(458.5,102.5)">
          <path d="M 0,0 -47,-47" style="stroke-width:40;stroke-linecap:butt;stroke-linejoin:round;stroke-miterlimit:10;stroke-dasharray:none;stroke-opacity:1" id="path1363" fill="none" stroke="#508345" stroke-width="40" stroke-linecap="butt" stroke-linejoin="round" stroke-miterlimit="10" stroke-dasharray="none" stroke-opacity="" data-original="#000000" class=""></path>
        </g>
        <g id="g1365" transform="translate(325,20)">
          <path d="m 0,0 h -245 c -33.137,0 -60,26.863 -60,60 v 352 c 0,33.137 26.863,60 60,60 h 352 c 33.137,0 60,-26.863 60,-60 V 166" style="stroke-width:40;stroke-linecap:round;stroke-linejoin:round;stroke-miterlimit:10;stroke-dasharray:none;stroke-opacity:1" id="path1367" fill="none" stroke="#508345" stroke-width="40" stroke-linecap="round" stroke-linejoin="round" stroke-miterlimit="10" stroke-dasharray="none" stroke-opacity="" data-original="#000000" class=""></path>
        </g>
      </g>
    </g>
  </g></g>
</g></svg>
