<svg xmlns="http://www.w3.org/2000/svg" width="11.982" height="11.982" viewBox="0 0 11.982 11.982">
  <path id="Path_1" data-name="Path 1" d="M15.231,15.982A11.025,11.025,0,0,1,4,4.751.75.75,0,0,1,4.749,4H6.725a.75.75,0,0,1,.741.64,9.3,9.3,0,0,0,.761,2.543l.077.166A.529.529,0,0,1,8.131,8a1.449,1.449,0,0,0-.369,2A8.85,8.85,0,0,0,9.976,12.22a1.448,1.448,0,0,0,2-.369.53.53,0,0,1,.654-.173l.165.077a9.3,9.3,0,0,0,2.544.761.75.75,0,0,1,.64.741v1.977a.75.75,0,0,1-.75.749Z" transform="translate(-4 -4)" fill="#2a2a2a"/>
</svg>
