<svg xmlns="http://www.w3.org/2000/svg" width="71.508" height="70.513" viewBox="0 0 71.508 70.513">
  <g id="cholesterol" transform="translate(-0.186 -0.51)">
    <path id="Path_162" data-name="Path 162" d="M66.937,15.662H57.516A19.26,19.26,0,0,0,39.626,27.689,5.659,5.659,0,0,0,38.3,25.635a5.445,5.445,0,0,0-2.715-1.526,3.806,3.806,0,0,0-.9-.066A62.623,62.623,0,0,0,52.58,4.025l1.357-2.414L51.982.51l-1.36,2.413A60.407,60.407,0,0,1,27.692,25.9,58.557,58.557,0,0,0,8.98,42.731L.186,55.042l1.829,1.305,2.92-4.085a6.155,6.155,0,0,0,.525.6A5.45,5.45,0,0,0,8.177,54.39a3.839,3.839,0,0,0,.756.078,2.882,2.882,0,0,0,2.079-.81,3.067,3.067,0,0,0,.737-2.839,5.461,5.461,0,0,0-1.525-2.724A5.871,5.871,0,0,0,8.694,47l2.113-2.957a55.487,55.487,0,0,1,4.474-5.455,5.582,5.582,0,0,0,2.668.663c2.519,0,4.493-1.479,4.493-3.37a3.083,3.083,0,0,0-1.567-2.573A55.724,55.724,0,0,1,28.8,27.855c1.14-.644,2.252-1.332,3.345-2.044a4.513,4.513,0,0,0,1.4,4.589,5.445,5.445,0,0,0,2.719,1.526,3.838,3.838,0,0,0,.756.078,3.039,3.039,0,0,0,1.471-.371,19.247,19.247,0,0,0-.318,3.379,21.683,21.683,0,0,1-3.222,11.371A48.884,48.884,0,0,0,19.614,70.4l2.166.6A46.574,46.574,0,0,1,43.408,43.143,64.472,64.472,0,0,0,66.17,21.166l5.524-8.924-1.909-1.185ZM8.634,49.688c.969.969,1.123,2.059.794,2.382a.921.921,0,0,1-.806.119,3.248,3.248,0,0,1-1.572-.913,3.619,3.619,0,0,1-.705-.986l1.018-1.423a3.474,3.474,0,0,1,1.273.821ZM20.195,35.88c0,.458-.875,1.123-2.246,1.123a3.547,3.547,0,0,1-1.011-.148c.667-.662,1.348-1.31,2.046-1.938C19.715,35.136,20.195,35.543,20.195,35.88Zm17.313-6.274a.919.919,0,0,1-.806.119,3.248,3.248,0,0,1-1.572-.913c-.969-.969-1.123-2.059-.794-2.382a.685.685,0,0,1,.486-.153,1.661,1.661,0,0,1,.32.034,3.248,3.248,0,0,1,1.572.913c.969.969,1.115,2.059.794,2.382Zm4.786,11.587c-1.16.664-2.282,1.385-3.379,2.141a23.924,23.924,0,0,0,1.5-8.322,17.1,17.1,0,0,1,17.1-17.1h8.029L64.26,19.986A62.207,62.207,0,0,1,42.294,41.193Z" transform="translate(0 0)" fill="#fff"/>
    <path id="Path_163" data-name="Path 163" d="M65.435,20.257A66.732,66.732,0,0,1,41.877,43,43.853,43.853,0,0,0,21.659,68.269l2.146.66A41.622,41.622,0,0,1,42.991,44.95,68.965,68.965,0,0,0,67.344,21.44l1.7-2.752-1.909-1.183Z" transform="translate(2.646 2.094)" fill="#fff"/>
    <path id="Path_164" data-name="Path 164" d="M7.152,41.426A60.813,60.813,0,0,1,26.584,23.944,58.155,58.155,0,0,0,48.664,1.822l.119-.211L46.824.51,46.7.723A55.927,55.927,0,0,1,25.474,21.993,63.058,63.058,0,0,0,5.324,40.12L.186,47.309l1.829,1.305Z" transform="translate(0 0)" fill="#fff"/>
    <path id="Path_165" data-name="Path 165" d="M17.1,47.53a3.067,3.067,0,0,0-2.835.732c-1.337,1.335-.987,3.777.794,5.559a5.445,5.445,0,0,0,2.715,1.526,3.837,3.837,0,0,0,.756.078,2.882,2.882,0,0,0,2.079-.81c1.337-1.335.987-3.777-.794-5.559A5.45,5.45,0,0,0,17.1,47.53Zm1.93,5.5a.919.919,0,0,1-.806.119,3.248,3.248,0,0,1-1.572-.913c-.969-.969-1.118-2.059-.794-2.382a.685.685,0,0,1,.486-.153,1.662,1.662,0,0,1,.32.034,3.248,3.248,0,0,1,1.572.913c.965.969,1.111,2.059.79,2.382Z" transform="translate(1.635 5.782)" fill="#fff"/>
    <path id="Path_166" data-name="Path 166" d="M16.329,38.079a5.457,5.457,0,0,0-2.724,1.528c-1.781,1.781-2.134,4.222-.8,5.559a2.884,2.884,0,0,0,2.08.81,3.838,3.838,0,0,0,.756-.078,5.463,5.463,0,0,0,2.724-1.526c1.781-1.781,2.134-4.223.794-5.559a3.063,3.063,0,0,0-2.835-.733Zm.449,4.7a3.243,3.243,0,0,1-1.572.912.913.913,0,0,1-.806-.118c-.325-.323-.176-1.413.794-2.382a3.244,3.244,0,0,1,1.572-.913,1.65,1.65,0,0,1,.322-.034.686.686,0,0,1,.487.153c.323.323.175,1.413-.794,2.382Z" transform="translate(1.455 4.618)" fill="#fff"/>
    <path id="Path_167" data-name="Path 167" d="M19,43.37c0,1.89,1.973,3.37,4.493,3.37s4.493-1.479,4.493-3.37S26.012,40,23.493,40,19,41.479,19,43.37Zm6.739,0c0,.458-.875,1.123-2.246,1.123s-2.246-.665-2.246-1.123.875-1.123,2.246-1.123S25.739,42.911,25.739,43.37Z" transform="translate(2.318 4.866)" fill="#fff"/>
    <path id="Path_168" data-name="Path 168" d="M27.1,37.348a5.45,5.45,0,0,0,2.724-1.526c1.781-1.781,2.134-4.223.8-5.559a3.063,3.063,0,0,0-2.845-.732,5.445,5.445,0,0,0-2.724,1.526c-1.781,1.781-2.134,4.223-.8,5.559a2.887,2.887,0,0,0,2.08.81,3.838,3.838,0,0,0,.765-.077Zm-1.247-2.321c-.323-.323-.175-1.413.794-2.382a3.248,3.248,0,0,1,1.572-.913,1.659,1.659,0,0,1,.319-.034.686.686,0,0,1,.487.153c.323.323.175,1.413-.794,2.382a3.248,3.248,0,0,1-1.572.913.917.917,0,0,1-.811-.119Z" transform="translate(2.866 3.564)" fill="#fff"/>
    <path id="Path_169" data-name="Path 169" d="M8.1,60.348a5.445,5.445,0,0,0,2.724-1.526c1.781-1.781,2.134-4.223.8-5.559a3.064,3.064,0,0,0-2.845-.732,5.445,5.445,0,0,0-2.724,1.526c-1.781,1.781-2.134,4.223-.8,5.559a2.887,2.887,0,0,0,2.08.81,3.838,3.838,0,0,0,.765-.078ZM6.854,58.027c-.323-.323-.175-1.413.794-2.382a3.248,3.248,0,0,1,1.572-.913,1.661,1.661,0,0,1,.32-.034.685.685,0,0,1,.486.153c.323.323.175,1.413-.794,2.382a3.248,3.248,0,0,1-1.572.913.915.915,0,0,1-.811-.119Z" transform="translate(0.525 6.398)" fill="#fff"/>
    <path id="Path_170" data-name="Path 170" d="M49.775,5.53a5.445,5.445,0,0,0-2.724,1.526c-1.781,1.781-2.134,4.223-.8,5.559a2.887,2.887,0,0,0,2.08.81,3.838,3.838,0,0,0,.756-.078,5.445,5.445,0,0,0,2.724-1.526c1.781-1.781,2.134-4.223.8-5.559a3.071,3.071,0,0,0-2.836-.732Zm.449,4.7a3.248,3.248,0,0,1-1.572.913.915.915,0,0,1-.806-.119c-.323-.323-.175-1.413.794-2.382a3.248,3.248,0,0,1,1.573-.913,1.661,1.661,0,0,1,.32-.034.685.685,0,0,1,.486.153c.329.323.183,1.413-.786,2.382Z" transform="translate(5.576 0.607)" fill="#fff"/>
    <path id="Path_171" data-name="Path 171" d="M54,5.37c0,1.89,1.973,3.37,4.493,3.37s4.493-1.479,4.493-3.37S61.012,2,58.493,2,54,3.479,54,5.37Zm6.739,0c0,.458-.875,1.123-2.246,1.123s-2.246-.665-2.246-1.123.875-1.123,2.246-1.123S60.739,4.911,60.739,5.37Z" transform="translate(6.63 0.184)" fill="#fff"/>
    <path id="Path_172" data-name="Path 172" d="M51.327,49.988,49.081,39.879a1.123,1.123,0,0,0-2.128-.2l-3.171,7.4-2.891.965a1.123,1.123,0,0,0-.762.941L39.006,59.094a1.123,1.123,0,0,0,.762,1.188l6.739,2.246a1.1,1.1,0,0,0,.356.058,1.123,1.123,0,0,0,1.114-1.262l-1.024-8.2,3.781-1.882A1.123,1.123,0,0,0,51.327,49.988Zm-6.09,1.485a1.123,1.123,0,0,0-.612,1.145l.9,7.218-4.187-1.4.943-8.493,2.688-.9a1.123,1.123,0,0,0,.674-.622l2.007-4.657,1.3,5.851Z" transform="translate(4.782 4.742)" fill="#fff"/>
    <path id="Path_173" data-name="Path 173" d="M58.949,47.2l1.924-3.836a1.123,1.123,0,0,0-.143-1.222L55.115,35.4a1.123,1.123,0,0,0-1.975.879L54.2,43.72l-2.009,3.011a1.123,1.123,0,0,0-.047,1.186l4.493,7.862a1.123,1.123,0,0,0,.977.562,1.053,1.053,0,0,0,.225-.022L63.457,55.2a1.123,1.123,0,0,0,.642-1.821Zm-.759,6.757L54.442,47.4,56.3,44.609a1.123,1.123,0,0,0,.177-.786l-.562-3.941,2.611,3.133L56.613,46.85a1.123,1.123,0,0,0,.143,1.222l4.407,5.288Z" transform="translate(6.384 4.249)" fill="#fff"/>
  </g>
</svg>
