<svg id="guts" xmlns="http://www.w3.org/2000/svg" width="70.511" height="70.513" viewBox="0 0 70.511 70.513">
  <path id="Path_151" data-name="Path 151" d="M35.256,35.256H10.283a10.283,10.283,0,1,1,0-20.566H23.5a2.943,2.943,0,0,0,2.938-2.938V1.469a1.469,1.469,0,0,1,2.938,0V11.752A5.882,5.882,0,0,1,23.5,17.628H10.283a7.345,7.345,0,1,0,0,14.69H35.256a1.469,1.469,0,1,1,0,2.938Z" fill="#fff"/>
  <path id="Path_152" data-name="Path 152" d="M28.028,31.566H10.283a10.283,10.283,0,1,1,0-20.566H38.37a1.469,1.469,0,1,1,0,2.938H10.283a7.345,7.345,0,0,0,0,14.69H28.028a1.469,1.469,0,0,1,0,2.938Z" transform="translate(0 21.318)" fill="#fff"/>
  <path id="Path_153" data-name="Path 153" d="M4.469,37.566A1.47,1.47,0,0,1,3,36.1V27.283A10.294,10.294,0,0,1,13.283,17H17.69a1.469,1.469,0,1,1,0,2.938H13.283a7.355,7.355,0,0,0-7.345,7.345V36.1A1.47,1.47,0,0,1,4.469,37.566Z" transform="translate(5.814 32.945)" fill="#fff"/>
  <path id="Path_154" data-name="Path 154" d="M24.976,16.938H4.469a1.469,1.469,0,0,1,0-2.938H24.976a1.469,1.469,0,0,1,0,2.938Z" transform="translate(5.814 27.132)" fill="#fff"/>
  <path id="Path_155" data-name="Path 155" d="M33.707,13.935a1.46,1.46,0,0,1-1.1-.5A7.2,7.2,0,0,0,27.1,10.938H9.469A1.469,1.469,0,1,1,9.469,8H27.1a10.232,10.232,0,0,1,7.715,3.5,1.466,1.466,0,0,1-.141,2.071,1.451,1.451,0,0,1-.964.364Z" transform="translate(15.504 15.504)" fill="#fff"/>
  <path id="Path_156" data-name="Path 156" d="M8.469,31.752A1.47,1.47,0,0,1,7,30.283V25.876A5.882,5.882,0,0,1,12.876,20h4.319a1.469,1.469,0,1,1,0,2.938H12.876a2.943,2.943,0,0,0-2.938,2.938v4.407A1.47,1.47,0,0,1,8.469,31.752Z" transform="translate(13.566 38.759)" fill="#fff"/>
  <path id="Path_157" data-name="Path 157" d="M24.976,16.938H4.469a1.469,1.469,0,0,1,0-2.938H24.976a1.469,1.469,0,0,1,0,2.938Z" transform="translate(5.814 27.132)" fill="#fff"/>
  <path id="Path_158" data-name="Path 158" d="M25.035,26.442H4.469a1.469,1.469,0,1,1,0-2.938H25.035a7.355,7.355,0,0,0,7.345-7.345V1.469a1.469,1.469,0,0,1,2.938,0v14.69A10.294,10.294,0,0,1,25.035,26.442Z" transform="translate(5.814)" fill="#fff"/>
  <path id="Path_159" data-name="Path 159" d="M17.47,23.815a1.469,1.469,0,0,1-.726-2.747l.494-.282c1.537-.873,2.1-2.327,1.4-3.62a1.468,1.468,0,0,1,2.585-1.393c1.469,2.718.4,5.9-2.538,7.571l-.494.279A1.473,1.473,0,0,1,17.47,23.815Z" transform="translate(31.006 29.068)" fill="#fff"/>
  <path id="Path_160" data-name="Path 160" d="M18.47,24.876a1.421,1.421,0,0,1-.4-.056,1.471,1.471,0,0,1-1.019-1.81,5.422,5.422,0,0,1,2.574-3.329,5.948,5.948,0,0,1,4.583-.405l.549.162a1.47,1.47,0,1,1-.837,2.818l-.546-.162a3.01,3.01,0,0,0-2.327.159A2.482,2.482,0,0,0,19.88,23.8a1.461,1.461,0,0,1-1.41,1.072Z" transform="translate(32.945 36.822)" fill="#fff"/>
  <path id="Path_161" data-name="Path 161" d="M25.065,47.256a2.821,2.821,0,0,1-.908-.147c-1.448-.494-2.071-1.93-2.621-3.2a5.316,5.316,0,0,0-.837-1.534,4.888,4.888,0,0,0-1.636-.358c-1.263-.153-2.835-.341-3.719-1.61-.855-1.225-.561-2.738-.306-4.072a5.48,5.48,0,0,0,.176-1.851A5.155,5.155,0,0,0,14.1,33.2c-.934-.9-2.1-2.01-2.1-3.576s1.163-2.679,2.1-3.576a5.17,5.17,0,0,0,1.116-1.287,5.405,5.405,0,0,0-.176-1.851c-.256-1.334-.546-2.841.306-4.069.884-1.272,2.453-1.46,3.717-1.61a4.906,4.906,0,0,0,1.636-.358,5.406,5.406,0,0,0,.84-1.537c.549-1.266,1.172-2.7,2.621-3.194,1.425-.482,2.791.317,3.887.964a5,5,0,0,0,1.581.734,5.1,5.1,0,0,0,1.584-.734c1.1-.646,2.459-1.445,3.887-.964,1.448.494,2.071,1.93,2.621,3.2a5.316,5.316,0,0,0,.837,1.534,4.888,4.888,0,0,0,1.636.358c1.263.153,2.835.341,3.719,1.61.855,1.225.561,2.738.306,4.072a5.48,5.48,0,0,0-.176,1.851,5.155,5.155,0,0,0,1.116,1.284c.934.9,2.1,2.01,2.1,3.576s-1.163,2.679-2.1,3.576a5.17,5.17,0,0,0-1.116,1.287,5.405,5.405,0,0,0,.176,1.851c.256,1.334.546,2.841-.306,4.069-.884,1.272-2.453,1.46-3.717,1.61a4.906,4.906,0,0,0-1.636.358,5.406,5.406,0,0,0-.84,1.537c-.549,1.266-1.172,2.7-2.621,3.194-1.431.485-2.791-.317-3.887-.964a5,5,0,0,0-1.581-.734,5.1,5.1,0,0,0-1.584.734,6.179,6.179,0,0,1-2.979,1.111Zm.018-32.318h-.012a6.327,6.327,0,0,0-.837,1.575,6.405,6.405,0,0,1-1.751,2.7,6.146,6.146,0,0,1-3.067.937,4.694,4.694,0,0,0-1.654.37,5.227,5.227,0,0,0,.167,1.836,6.873,6.873,0,0,1,.1,3.279,6.285,6.285,0,0,1-1.892,2.535c-.45.429-1.2,1.146-1.2,1.454s.746,1.025,1.2,1.451a6.332,6.332,0,0,1,1.892,2.535,6.862,6.862,0,0,1-.1,3.276,5.164,5.164,0,0,0-.167,1.839,4.769,4.769,0,0,0,1.654.367,6.161,6.161,0,0,1,3.064.934,6.457,6.457,0,0,1,1.754,2.7,5.291,5.291,0,0,0,.881,1.589,6.274,6.274,0,0,0,1.437-.717,6.269,6.269,0,0,1,3.073-1.143A6.287,6.287,0,0,1,32.7,43.607a4.281,4.281,0,0,0,1.484.705,6.327,6.327,0,0,0,.837-1.575,6.405,6.405,0,0,1,1.751-2.7,6.146,6.146,0,0,1,3.067-.937,4.694,4.694,0,0,0,1.654-.37,5.227,5.227,0,0,0-.167-1.836,6.873,6.873,0,0,1-.1-3.279,6.285,6.285,0,0,1,1.892-2.535c.452-.423,1.2-1.14,1.2-1.448s-.746-1.025-1.2-1.451a6.332,6.332,0,0,1-1.892-2.535,6.862,6.862,0,0,1,.1-3.276,5.164,5.164,0,0,0,.167-1.839,4.769,4.769,0,0,0-1.654-.367,6.161,6.161,0,0,1-3.064-.934,6.457,6.457,0,0,1-1.754-2.7,5.291,5.291,0,0,0-.881-1.589,6.274,6.274,0,0,0-1.437.717,6.269,6.269,0,0,1-3.073,1.143,6.286,6.286,0,0,1-3.073-1.143,5.3,5.3,0,0,0-1.475-.711Z" transform="translate(23.256 23.255)" fill="#fff"/>
</svg>
