<svg xmlns="http://www.w3.org/2000/svg" width="71.419" height="70.513" viewBox="0 0 71.419 70.513">
  <g id="hypertension" transform="translate(0 -3.249)">
    <path id="Path_145" data-name="Path 145" d="M97.9,354.042H100v2.092H97.9Z" transform="translate(-84.247 -301.861)" fill="#fff"/>
    <path id="Path_146" data-name="Path 146" d="M71.419,21.034A17.784,17.784,0,0,0,41.868,7.7l1.385,1.568a15.7,15.7,0,1,1-1.387,1.387L40.3,9.269a17.792,17.792,0,0,0-3.645,17.057,19.928,19.928,0,0,0-9.766,6.891A20.223,20.223,0,0,0,17.394,26.4a12.694,12.694,0,0,0-9.882.962A14.286,14.286,0,0,0,.86,36.006,20.408,20.408,0,0,0,1.246,48H0v6.277H4.148C8.5,61.468,15.981,67.934,26.394,73.5l.493.264.493-.264c9.643-5.153,16.794-11.1,21.269-17.69h5.125V49.531H51.984a22.166,22.166,0,0,0,1.505-10.714l.145,0A17.805,17.805,0,0,0,71.419,21.034ZM51.681,53.716H38.324l-3.479-4.656L30.2,58.436l-5.037-6.255H17.842v2.092h6.322L30.625,62.3l4.583-9.256,2.067,2.767h8.809c-4.24,5.731-10.685,10.964-19.2,15.579C17.729,66.418,10.774,60.537,6.626,54.273h4.939V52.181H2.092V50.089H26.167l3.612,4.486,4.7-9.5,4.89,6.546H51.681Zm-1.955-4.185H40.421l-6.3-8.435-4.762,9.618L27.168,48H3.452a18.6,18.6,0,0,1-.584-11.4,12.211,12.211,0,0,1,5.657-7.4c4.354-2.408,11.244-2.008,17.526,6.34l.836,1.111.836-1.111c2.9-3.852,6.229-6.34,9.676-7.245a17.833,17.833,0,0,0,13.96,10.382A20.243,20.243,0,0,1,49.726,49.531Z" fill="#fff"/>
    <path id="Path_147" data-name="Path 147" d="M314.2,47.9V46.849a13.6,13.6,0,0,0-27.2,0V47.9h6.277V46.849a7.323,7.323,0,0,1,14.647,0V47.9ZM309.957,45.8a9.371,9.371,0,0,0-2.006-4.826l1.488-1.488A11.457,11.457,0,0,1,312.06,45.8Zm-20.819,0a11.456,11.456,0,0,1,2.621-6.314l1.488,1.488a9.369,9.369,0,0,0-2.006,4.826Zm5.588-6.306-1.487-1.487a11.457,11.457,0,0,1,6.314-2.62v2.1A9.37,9.37,0,0,0,294.727,39.5Zm6.919-2v-2.1a11.457,11.457,0,0,1,6.314,2.62L306.472,39.5A9.368,9.368,0,0,0,301.646,37.494Z" transform="translate(-246.965 -25.815)" fill="#fff"/>
    <path id="Path_148" data-name="Path 148" d="M369.967,145.02l-3.494,3.539a3.139,3.139,0,1,0,1.489,1.47l3.494-3.538Zm-4.828,7.425a1.046,1.046,0,1,1,1.046-1.046A1.047,1.047,0,0,1,365.139,152.445Z" transform="translate(-311.505 -121.995)" fill="#fff"/>
    <path id="Path_149" data-name="Path 149" d="M338.889,275.043h2.092v2.092h-2.092Z" transform="translate(-291.617 -233.881)" fill="#fff"/>
    <path id="Path_150" data-name="Path 150" d="M323.888,305.042h2.092v2.092h-2.092Z" transform="translate(-278.709 -259.696)" fill="#fff"/>
  </g>
</svg>
