<svg xmlns="http://www.w3.org/2000/svg" width="70.523" height="70.513" viewBox="0 0 70.523 70.513">
  <path id="bowels" d="M72.937,21.917c.795-1.06,1.586-3.265,1.586-7.842,0-4.685-5.1-6.127-8.245-6.283A8.3,8.3,0,0,0,55.453,6.4,11.146,11.146,0,0,0,43.558,7.4c-3.447-2.4-8.265-.763-10.264.1-3.25-3.351-7.722-2.461-10.282-1.213A11.838,11.838,0,0,0,16.384,4c-3.168,0-5.569,1.024-7.133,3.044-2.588,3.342-1.97,8.391-1.6,10.333-3.579,3.289-2.886,8.206-1.671,11.246C5.013,29.285,4,30.7,4,33.7a13.343,13.343,0,0,0,2.459,7.53A17.231,17.231,0,0,0,4,49.336,11.8,11.8,0,0,0,14.838,60.642c.82.759.854,1.636.821,3.031-.047,1.992-.108,4.721,4.427,5.778A1.259,1.259,0,0,0,20.657,67c-2.543-.593-2.522-1.432-2.481-3.268a7.636,7.636,0,0,0-.45-3.3,9.519,9.519,0,0,0,6.734-4.74,15.434,15.434,0,0,0,10.483,3.474,10.516,10.516,0,0,0-.719,4.025c0,3.7,1.813,5.571,3.272,7.074,1.128,1.164,1.767,1.876,1.767,3a1.259,1.259,0,0,0,2.519,0c0-2.2-1.316-3.556-2.477-4.754-1.317-1.359-2.561-2.641-2.561-5.321,0-5.118,3.671-7.137,8.591-6.317a1.266,1.266,0,0,0,1.122-.355c2.06-2.092,5.523-3.264,8.432-1.128A1.259,1.259,0,0,0,56.727,55c.455-.795,2.162-3.079,3.988-3.145a1.26,1.26,0,0,0,1.009-1.948c-.033-.05-3.2-4.989-.127-8.322a1.261,1.261,0,0,0,.178-1.463c-.035-.064-3.5-6.447.783-8.9a1.265,1.265,0,0,0,.14-2.093c-.174-.135-4.209-3.37-.918-9.417a1.26,1.26,0,0,0-1.7-1.71c-1.582.853-6.6,2.894-8.807,1.166a1.26,1.26,0,0,0-1.354-.126c-2.349,1.249-6.253,1.609-8.468-.787a1.258,1.258,0,0,0-1.689-.146,5.982,5.982,0,0,1-7.817-.651,1.315,1.315,0,0,0-1.3-.263c-.053.019-5.278,1.922-8.241-.344a1.261,1.261,0,0,0-2.012.83c-.149,1.073-.957,4.02-2.881,4.77a1.259,1.259,0,0,0-.615,1.835c1.446,2.326,2.418,6.073.278,7.805a1.266,1.266,0,0,0-.082,1.884c.16.156,3.88,3.893.905,9.752a1.261,1.261,0,0,0,.438,1.627c7.768,5.18,4.374,12.8-3.094,12.8a9.286,9.286,0,0,1-8.815-8.815C6.519,45.593,9,41.9,9.03,41.861a1.265,1.265,0,0,0-.1-1.548A10.959,10.959,0,0,1,6.519,33.7c0-2.383.795-3.1,1.156-3.148a1.262,1.262,0,0,0,1.108-1.859c-.141-.262-3.4-6.459,1.02-9.84a1.263,1.263,0,0,0,.455-1.313c-.015-.058-1.449-5.819.99-8.959C12.324,7.194,14,6.519,16.384,6.519a9.691,9.691,0,0,1,5.67,2.2,1.26,1.26,0,0,0,1.49.135c.213-.13,5.287-3.116,8.424.951a1.262,1.262,0,0,0,1.586.345c.059-.033,6.153-3.19,9.121-.223a1.265,1.265,0,0,0,1.768.013,8.665,8.665,0,0,1,10.442-.973A1.273,1.273,0,0,0,56.3,8.876a5.921,5.921,0,0,1,8.449.986,1.274,1.274,0,0,0,.953.434c.062,0,6.3.063,6.3,3.778,0,5.06-1,6.259-1.162,6.416a1.259,1.259,0,0,0-.554,1.772A13.919,13.919,0,0,1,72,28.242c0,2.889-2.555,6.347-2.582,6.381a1.267,1.267,0,0,0-.062,1.418c.11.178,2.648,4.408-.166,8.367a1.262,1.262,0,0,0,.024,1.492c.028.037,2.786,3.715,2.786,7.423,0,4.894-3.1,10.769-8.832,9.881a1.269,1.269,0,0,0-1.3.647c-1.951,3.527-5.085,4.719-8.4,2.124a1.255,1.255,0,0,0-1.219-.188c-.486.181-2.917,1.4-2.917,7.475a1.259,1.259,0,0,0,2.519,0c0-2.755.55-4.089.931-4.686,4.089,2.643,8.139,1.172,10.84-2.788,6.813.494,10.9-6.243,10.9-12.466a16.152,16.152,0,0,0-2.787-8.21,10.281,10.281,0,0,0,.166-9.649c.863-1.315,2.621-4.345,2.621-7.222a15.635,15.635,0,0,0-1.586-6.326ZM45.13,54.305c-2.893-.3-6.1.215-8.28,2.166a13.129,13.129,0,0,1-11.537-3.4,7.26,7.26,0,0,0-.569-4.22c5.21.646,11.192.743,15.985-1.359,3.755.6,6.463,2.407,5.3,6.114A10.478,10.478,0,0,0,45.13,54.305Zm10.149-1.643a7.97,7.97,0,0,0-6.439-.489c.12-3.23-2.028-5.345-5.056-6.474a.077.077,0,0,1,.013-.009A11.856,11.856,0,0,0,48.2,37.9a19.4,19.4,0,0,0,9.817-1.152,14.155,14.155,0,0,0,1.156,3.817,7.533,7.533,0,0,0-.651,1.065,11.3,11.3,0,0,1-6.68,2.67,1.259,1.259,0,0,0,.01,2.519,13.976,13.976,0,0,0,5.87-1.584A11.779,11.779,0,0,0,58.8,49.749a9.233,9.233,0,0,0-3.522,2.913ZM40.366,20.7a7.87,7.87,0,0,0,4.55,1.827,42.578,42.578,0,0,1-3.862,3.108A1.26,1.26,0,0,0,42.505,27.7c.48-.339,4.481-3.2,6.164-5.535a13.842,13.842,0,0,0,1.708-.568c2.405,1.349,5.634.7,7.965-.108a9.215,9.215,0,0,0,1.681,8.475,6.462,6.462,0,0,0-2.051,4.1c-6.868,2.687-10.951,1.244-12.818.079a36.737,36.737,0,0,0,6.368-5.363,1.26,1.26,0,0,0-1.858-1.7C47.845,29.065,42.2,34.224,38,34.224c-4.327,0-5.051-3.758-5.172-5.156a30.468,30.468,0,0,0,4.87-7.423,9.113,9.113,0,0,0,2.666-.942Zm-17.9-.929a11.358,11.358,0,0,0,5.94.539,29.6,29.6,0,0,1-2.628,3.157,1.26,1.26,0,0,0,1.782,1.781,30.089,30.089,0,0,0,3.888-4.957,8.294,8.294,0,0,0,3.428,1.4c-1.776,3.418-5.4,8.754-9.466,8.754-3.641,0-4.481-2.383-4.61-2.846a14.143,14.143,0,0,0-1.152-3.48,8.59,8.59,0,0,0,2.82-4.346Zm-.858,20.3a31.349,31.349,0,0,0,13.981,1.7,1.259,1.259,0,0,0-.213-2.51c-7.689.65-12.493-1.312-13.938-2.019a10.423,10.423,0,0,0-1.769-4.116,5.583,5.583,0,0,0,.926-1.672c2.447,1.884,6.4,2.274,10.036-.406A7.234,7.234,0,0,0,38,36.743,11.273,11.273,0,0,0,42.747,35.5a10.81,10.81,0,0,0,3,1.723,9.388,9.388,0,0,1-3.512,6.487c-3.781,2.981-10.28,3.757-19.3,2.33a16.463,16.463,0,0,0-2.253-2.152,12.045,12.045,0,0,0,.921-3.815Z" transform="translate(-4 -4)" fill="#fff"/>
</svg>
