<svg xmlns="http://www.w3.org/2000/svg" width="74.16" height="70.513" viewBox="0 0 74.16 70.513">
  <g id="outline" transform="translate(-11.999 -28)">
    <path id="Path_197" data-name="Path 197" d="M13.647,99.378a10.314,10.314,0,0,0,10.033,12.7H80.962a3.986,3.986,0,0,0,3.982-3.982v-1.406a2.217,2.217,0,0,0-1.745-2.175l-5.749-1.277a6.073,6.073,0,0,0-9.135-3.584L40.7,85.4a7.018,7.018,0,0,1-3.73-7.08l4.2-33.64a.608.608,0,1,0-1.206-.151l-4.2,33.641a8.238,8.238,0,0,0,4.379,8.311l27.136,14a6.06,6.06,0,0,0-1.784,4.3.608.608,0,0,0,1.216,0,4.863,4.863,0,1,1,8.907,2.7.608.608,0,1,0,1.01.676,6.052,6.052,0,0,0,1.024-3.378c0-.086,0-.172-.007-.257l1.222.272v1.808a.608.608,0,0,0,.46.59l4.392,1.1a2.768,2.768,0,0,1-2.755,2.567H23.68a9.1,9.1,0,0,1-8.85-11.205L17.75,87.393a8.154,8.154,0,0,0,.166-2.859l-4.7-40A.608.608,0,1,0,12,44.678l4.705,40a6.94,6.94,0,0,1-.141,2.435Zm66.434,5.693,2.854.634a1.021,1.021,0,0,1,.794.989v.354l-3.647-.912Z" transform="translate(0 -13.568)" fill="#fff"/>
    <path id="Path_198" data-name="Path 198" d="M77.89,300.082a.608.608,0,0,0-.831.222A7.9,7.9,0,0,0,83.9,312.157a.608.608,0,1,0,0-1.216,6.688,6.688,0,0,1-5.792-10.03A.608.608,0,0,0,77.89,300.082Z" transform="translate(-54.276 -230.665)" fill="#fff"/>
    <path id="Path_199" data-name="Path 199" d="M226.491,28a22.491,22.491,0,1,0,22.491,22.491A22.517,22.517,0,0,0,226.491,28Zm6.639,2.278a34.066,34.066,0,0,0-1.168,8.848,12.82,12.82,0,0,0,2.564,7.693l.254.339a1.484,1.484,0,0,1,.172.3,3.018,3.018,0,0,0-2.111.9,3.641,3.641,0,0,0-5.346-1.493,4.258,4.258,0,0,0-4.21-.131,3.032,3.032,0,0,0-4.222.92,3.024,3.024,0,0,0-.9-.19,1.706,1.706,0,0,1,.3-.642,12.818,12.818,0,0,0,2.563-7.693,34.193,34.193,0,0,0-.7-6.853c-.138-.67-.3-1.337-.473-1.995a21.282,21.282,0,0,1,13.279,0Zm1.876,22.037-.05,0a.608.608,0,0,0-.611.487,2.429,2.429,0,0,1-4.068,1.266.608.608,0,0,0-.935.113,1.214,1.214,0,0,1-2.215-.39.608.608,0,0,0-.8-.443,3.064,3.064,0,0,1-2.217-.048.608.608,0,0,0-.8.327,1.82,1.82,0,0,1-1.683,1.122,1.855,1.855,0,0,1-.236-.017.607.607,0,0,0-.608.3,1.824,1.824,0,1,1-3.1-1.91.608.608,0,0,0-.3-.913A1.823,1.823,0,1,1,219,48.977a.608.608,0,0,0,.913-.3,1.818,1.818,0,0,1,2.93-.757.608.608,0,0,0,.744.051,3.038,3.038,0,0,1,3.558.126.608.608,0,0,0,.777-.025,2.426,2.426,0,0,1,4,1.371.608.608,0,0,0,.487.487,2.465,2.465,0,0,1,.249.059.608.608,0,0,0,.717-.31,1.823,1.823,0,1,1,1.635,2.64Zm-29.791-1.824a21.311,21.311,0,0,1,13.488-19.8c.16.6.3,1.213.429,1.825a32.969,32.969,0,0,1,.672,6.609,11.6,11.6,0,0,1-2.322,6.966,2.9,2.9,0,0,0-.576,1.56,3.034,3.034,0,0,0-.551,5.405,3.041,3.041,0,0,0,2.234,4.06v2.125a7.814,7.814,0,0,0,1.318,4.353,6.618,6.618,0,0,1,1.113,3.677c0,1.247-.059,2.5-.17,3.735A21.313,21.313,0,0,1,205.216,50.491ZM222.045,71.3c.125-1.331.191-2.682.191-4.027a7.837,7.837,0,0,0-1.318-4.352,6.6,6.6,0,0,1-1.113-3.677V57.114a3.048,3.048,0,0,0,1.822-1.152h0a3.032,3.032,0,0,0,2.536-1.363,4.3,4.3,0,0,0,2,.055,2.447,2.447,0,0,0,2.155,1.308,2.416,2.416,0,0,0,1.619-.618,3.623,3.623,0,0,0,3.1.454,4.581,4.581,0,0,1,.144,1.14v2.3a6.618,6.618,0,0,1-1.113,3.678,7.836,7.836,0,0,0-1.318,4.352c0,1.345.067,2.7.191,4.027a21.321,21.321,0,0,1-8.893,0Zm10.087-.291c-.11-1.235-.17-2.488-.17-3.735a6.618,6.618,0,0,1,1.113-3.678,7.836,7.836,0,0,0,1.318-4.353v-2.3a5.789,5.789,0,0,0-.255-1.7,3.647,3.647,0,0,0,1.272-1.732,3.037,3.037,0,0,0,.865-5.768,2.718,2.718,0,0,0-.523-1.307l-.254-.339a11.6,11.6,0,0,1-2.321-6.964,32.839,32.839,0,0,1,1.1-8.436,21.279,21.279,0,0,1-2.148,40.317Z" transform="translate(-162.823)" fill="#fff"/>
    <ellipse id="Ellipse_12" data-name="Ellipse 12" cx="1" cy="0.5" rx="1" ry="0.5" transform="translate(55.999 51)" fill="#fff"/>
    <ellipse id="Ellipse_13" data-name="Ellipse 13" cx="0.5" cy="1" rx="0.5" ry="1" transform="translate(49.999 53)" fill="#fff"/>
    <ellipse id="Ellipse_14" data-name="Ellipse 14" cx="0.5" cy="1" rx="0.5" ry="1" transform="translate(48.999 49)" fill="#fff"/>
    <circle id="Ellipse_15" data-name="Ellipse 15" cx="0.5" cy="0.5" r="0.5" transform="translate(49.999 47)" fill="#fff"/>
    <ellipse id="Ellipse_16" data-name="Ellipse 16" cx="0.5" cy="1" rx="0.5" ry="1" transform="translate(58.999 49)" fill="#fff"/>
    <ellipse id="Ellipse_17" data-name="Ellipse 17" cx="0.5" cy="1" rx="0.5" ry="1" transform="translate(57.999 53)" fill="#fff"/>
    <circle id="Ellipse_18" data-name="Ellipse 18" cx="0.5" cy="0.5" r="0.5" transform="translate(59.999 58)" fill="#fff"/>
    <circle id="Ellipse_19" data-name="Ellipse 19" cx="0.5" cy="0.5" r="0.5" transform="translate(60.999 51)" fill="#fff"/>
    <ellipse id="Ellipse_20" data-name="Ellipse 20" cx="0.5" cy="1" rx="0.5" ry="1" transform="translate(61.999 56)" fill="#fff"/>
    <circle id="Ellipse_21" data-name="Ellipse 21" cx="0.5" cy="0.5" r="0.5" transform="translate(64.999 52)" fill="#fff"/>
    <ellipse id="Ellipse_22" data-name="Ellipse 22" cx="0.5" cy="1" rx="0.5" ry="1" transform="translate(65.999 56)" fill="#fff"/>
    <circle id="Ellipse_23" data-name="Ellipse 23" cx="1" cy="1" r="1" transform="translate(62.999 49)" fill="#fff"/>
    <ellipse id="Ellipse_24" data-name="Ellipse 24" cx="1" cy="0.5" rx="1" ry="0.5" transform="translate(62.999 44)" fill="#fff"/>
    <ellipse id="Ellipse_25" data-name="Ellipse 25" cx="0.5" rx="0.5" transform="translate(59.999 44)" fill="#fff"/>
    <circle id="Ellipse_26" data-name="Ellipse 26" cx="0.5" cy="0.5" r="0.5" transform="translate(65.999 51)" fill="#fff"/>
    <ellipse id="Ellipse_27" data-name="Ellipse 27" cx="1" cy="0.5" rx="1" ry="0.5" transform="translate(66.999 44)" fill="#fff"/>
    <circle id="Ellipse_28" data-name="Ellipse 28" cx="0.5" cy="0.5" r="0.5" transform="translate(68.999 52)" fill="#fff"/>
    <circle id="Ellipse_29" data-name="Ellipse 29" cx="0.5" cy="0.5" r="0.5" transform="translate(71.999 55)" fill="#fff"/>
    <ellipse id="Ellipse_30" data-name="Ellipse 30" cx="1" rx="1" transform="translate(73.999 55)" fill="#fff"/>
    <ellipse id="Ellipse_31" data-name="Ellipse 31" cx="0.5" cy="1" rx="0.5" ry="1" transform="translate(76.999 49)" fill="#fff"/>
    <path id="Path_200" data-name="Path 200" d="M374.02,322.461l-3.095,1.436-.122-1.072a.608.608,0,0,0-1.021-.374l-5.594,5.276a.608.608,0,0,0,.673.994l3.646-1.692.122,1.072a.608.608,0,0,0,1.033.362l5.041-5.021a.608.608,0,0,0-.685-.982Zm-4.324,4.253-.075-.66a.608.608,0,0,0-.86-.483l-1.013.47,1.984-1.871.08.7a.608.608,0,0,0,.86.483l.729-.339Z" transform="translate(-298.507 -249.564)" fill="#fff"/>
    <path id="Path_201" data-name="Path 201" d="M416.213,335.8a.608.608,0,0,0-.772.12l-2.245,2.568-.546-.93a.608.608,0,0,0-1.085.073l-2.969,7.093a.608.608,0,0,0,1.018.635l2.645-3.027.546.93a.608.608,0,0,0,1.091-.088l2.569-6.635A.608.608,0,0,0,416.213,335.8Zm-3,5.762-.336-.573a.608.608,0,0,0-.982-.092l-.735.841,1.053-2.516.358.609a.608.608,0,0,0,.982.092l.529-.606Z" transform="translate(-336.287 -260.951)" fill="#fff"/>
    <path id="Path_202" data-name="Path 202" d="M457.618,344.485l.99,7.625a.608.608,0,0,0,.584.529h.02a.608.608,0,0,0,.6-.491l.77-3.945.939.531a.608.608,0,0,0,.9-.624l-1.106-7.028a.608.608,0,0,0-1.2-.022l-.653,3.349-.939-.531a.608.608,0,0,0-.9.608Zm1.977,1.4a.608.608,0,0,0,.9-.413l.154-.79.374,2.377-.578-.327a.608.608,0,0,0-.9.413l-.214,1.1-.351-2.705Z" transform="translate(-377.894 -265.068)" fill="#fff"/>
  </g>
</svg>
