<svg xmlns="http://www.w3.org/2000/svg" width="82.828" height="70.513" viewBox="0 0 82.828 70.513">
  <g id="thyroid" transform="translate(0 -38.06)">
    <g id="Group_24" data-name="Group 24" transform="translate(0 38.06)">
      <g id="Group_23" data-name="Group 23">
        <path id="Path_193" data-name="Path 193" d="M69.547,102.2a10.273,10.273,0,0,1-7.616-9.913v-23.3a48.978,48.978,0,0,0,14.336-27.2l.3-1.8L73.674,39.5l-.3,1.794a46.083,46.083,0,0,1-14.213,26.29H59v.148a46.032,46.032,0,0,1-11.45,7.672l-2.068.973H37.308a45.782,45.782,0,0,1-13.481-8.743v-.048h-.054A46.241,46.241,0,0,1,9.555,40.724l-.4-2.664-2.9.434.4,2.664A49.162,49.162,0,0,0,20.9,68.913V92.287A10.276,10.276,0,0,1,13.28,102.2L0,105.742l.756,2.831,13.281-3.541a13.208,13.208,0,0,0,9.79-12.744V71.545A48.59,48.59,0,0,0,36.458,79.2a1.438,1.438,0,0,0,.558.111H45.81a1.464,1.464,0,0,0,.624-.139L48.8,78.062A48.984,48.984,0,0,0,59,71.612V92.288a13.208,13.208,0,0,0,9.791,12.744l13.281,3.541.756-2.831Z" transform="translate(0 -38.06)" fill="#fff"/>
      </g>
    </g>
    <g id="Group_26" data-name="Group 26" transform="translate(30.118 52.99)">
      <g id="Group_25" data-name="Group 25">
        <path id="Path_194" data-name="Path 194" d="M206.692,130.723a2.572,2.572,0,0,1-2.231.715l-6.088-1.014a5.49,5.49,0,0,0-1.806,0l-6.086,1.014a2.575,2.575,0,0,1-2.232-.715l-2.074,2.072a5.507,5.507,0,0,0,4.788,1.534l6.088-1.014a2.613,2.613,0,0,1,.841,0l6.088,1.014a5.445,5.445,0,0,0,.9.075,5.508,5.508,0,0,0,3.888-1.609Z" transform="translate(-186.176 -130.349)" fill="#fff"/>
      </g>
    </g>
    <g id="Group_28" data-name="Group 28" transform="translate(37.827 57.335)">
      <g id="Group_27" data-name="Group 27">
        <path id="Path_195" data-name="Path 195" d="M233.828,158.052l1.31,2.622a5.115,5.115,0,0,1,4.552,0l1.31-2.622A8.068,8.068,0,0,0,233.828,158.052Z" transform="translate(-233.828 -157.212)" fill="#fff"/>
      </g>
    </g>
    <g id="Group_30" data-name="Group 30" transform="translate(29.96 82.85)">
      <g id="Group_29" data-name="Group 29">
        <path id="Path_196" data-name="Path 196" d="M206.646,316.383a4.966,4.966,0,0,0-5.358-1.1l-4.638,1.857-4.64-1.857a4.969,4.969,0,0,0-6.733,5.5l2.08,11.438a4.966,4.966,0,0,0,4.889,4.08h1.488a4.927,4.927,0,0,0,2.916-.945,4.927,4.927,0,0,0,2.916.945h1.487a4.965,4.965,0,0,0,4.888-4.08l2.08-11.437A4.97,4.97,0,0,0,206.646,316.383Zm-1.506,3.878L203.06,331.7a2.038,2.038,0,0,1-2.006,1.674h-1.487a2.024,2.024,0,0,1-1.441-.6l-.44-.44a1.465,1.465,0,0,0-2.072,0l-.44.44a2.03,2.03,0,0,1-1.441.6h-1.487a2.037,2.037,0,0,1-2-1.674l-2.08-11.44A2.038,2.038,0,0,1,190.923,318l5.184,2.074a1.457,1.457,0,0,0,1.089,0L202.377,318a2.038,2.038,0,0,1,2.763,2.257Z" transform="translate(-185.197 -314.927)" fill="#fff"/>
      </g>
    </g>
    <g id="Group_32" data-name="Group 32" transform="translate(42.882 89.572)">
      <g id="Group_31" data-name="Group 31">
        <rect id="Rectangle_268" data-name="Rectangle 268" width="2.931" height="2.931" fill="#fff"/>
      </g>
    </g>
    <g id="Group_34" data-name="Group 34" transform="translate(37.019 89.572)">
      <g id="Group_33" data-name="Group 33">
        <rect id="Rectangle_269" data-name="Rectangle 269" width="2.931" height="2.931" fill="#fff"/>
      </g>
    </g>
    <g id="Group_36" data-name="Group 36" transform="translate(42.882 95.435)">
      <g id="Group_35" data-name="Group 35">
        <rect id="Rectangle_270" data-name="Rectangle 270" width="2.931" height="2.931" fill="#fff"/>
      </g>
    </g>
    <g id="Group_38" data-name="Group 38" transform="translate(37.019 95.435)">
      <g id="Group_37" data-name="Group 37">
        <rect id="Rectangle_271" data-name="Rectangle 271" width="2.931" height="2.931" fill="#fff"/>
      </g>
    </g>
  </g>
</svg>
