<svg xmlns="http://www.w3.org/2000/svg" width="66.235" height="70.513" viewBox="0 0 66.235 70.513">
  <g id="gastric" transform="translate(-15.531)">
    <path id="Path_203" data-name="Path 203" d="M20.841,264.789a1.03,1.03,0,0,0-1.05,1.016,140.679,140.679,0,0,1-4.229,31.746,1.033,1.033,0,0,0,.752,1.253q.782.187,1.253-.752a142.755,142.755,0,0,0,4.29-32.213A1.033,1.033,0,0,0,20.841,264.789Z" transform="translate(0 -228.322)" fill="#fff"/>
    <path id="Path_204" data-name="Path 204" d="M17.566.783a1.033,1.033,0,0,0-2,.5,140.489,140.489,0,0,1,4.229,31.732q.314,1.028,1.05,1.016a1.033,1.033,0,0,0,1.016-1.05,142.555,142.555,0,0,0-4.29-32.2Z" fill="#fff"/>
    <path id="Path_205" data-name="Path 205" d="M456.718,1.286a1.033,1.033,0,0,0-2-.5A142.263,142.263,0,0,0,450.4,35.248a142.384,142.384,0,0,0,4.309,34.484q.47.939,1.253.752a1.033,1.033,0,0,0,.752-1.253,138.64,138.64,0,0,1,0-67.945Z" transform="translate(-374.983 -0.002)" fill="#fff"/>
    <path id="Path_206" data-name="Path 206" d="M141.173,58.283c.065,1.161.1,2.292.1,3.364a1.033,1.033,0,0,0,1.033,1.03h0a1.033,1.033,0,0,0,1.03-1.036c0-1.118-.039-2.3-.108-3.507-.581-10.006-11.3-12.09-18.913-7.569.776-.461-.319-1.782-.319-2.7V37.554a1.033,1.033,0,0,0-1.033-1.033h-4.311a1.033,1.033,0,0,0-1.033,1.033v10.31a20.421,20.421,0,0,0,2.643,9.508c.64,1.209,2.138,4.041-4.317,8.457a9.59,9.59,0,0,0-2.307,2.261,4.7,4.7,0,0,1-3.774,1.886c-8.892,0-12.64,10.544-5.917,16.5a2.669,2.669,0,0,1,.838,2.024v8.2a1.033,1.033,0,0,0,1.033,1.033h4.311a1.033,1.033,0,0,0,1.033-1.033V88.5a9.172,9.172,0,0,0-2.706-6.533c-1.4-1.124-2.275-3.154-.786-4.724.819-.864,3.089-1.442,3.515.207.994,3.848,4.529,6.623,9.457,7.424l.052.007c6.691.741,11.986-.435,15.735-3.494,3.813-3.111,6.071-8.209,6.711-15.151a1.033,1.033,0,0,0-2.057-.19c-.587,6.37-2.592,10.993-5.96,13.74-3.3,2.691-8.068,3.715-14.175,3.044-4.081-.67-6.982-2.874-7.762-5.9-.862-3.339-5.048-3.186-7.014-1.112-2.154,2.272-1.435,5.739.825,7.607a7.121,7.121,0,0,1,2.1,5.072v7.171h-2.245V88.5a4.9,4.9,0,0,0-1.443-3.485c-5.082-4.32-2.559-12.978,4.456-12.978a6.775,6.775,0,0,0,5.436-2.725,7.564,7.564,0,0,1,1.813-1.784c7.976-5.457,5.717-9.725,4.975-11.128a18.269,18.269,0,0,1-2.4-8.541V38.587h2.245v9.277a13.457,13.457,0,0,0,.824,4.659,1.033,1.033,0,0,0,1.58.477c6.055-4.432,15.8-3.255,16.834,5.283Z" transform="translate(-73.278 -31.491)" fill="#fff"/>
    <path id="Path_207" data-name="Path 207" d="M220.317,268.61a1.033,1.033,0,0,0,.491,2.007c5.516-1.35,8.308-5.916,9.349-11.2q.02-1.323-1.3-1.193c-2.917.834-6.178.615-9.972-.67-4.721-1.6-13.515,3.326-11.729,9.3,1.039,3.474,5.769,4.454,8.9,4.268a1.033,1.033,0,0,0,.006-2.066c-1.932-.012-6.181-.288-6.93-2.794-1.327-4.439,5.912-7.825,9.088-6.751a19.619,19.619,0,0,0,9.539,1.072C226.71,264.447,224.378,267.616,220.317,268.61Z" transform="translate(-165.033 -221.817)" fill="#fff"/>
  </g>
</svg>
