<svg id="slim-body" xmlns="http://www.w3.org/2000/svg" xmlns:xlink="http://www.w3.org/1999/xlink" width="70.513" height="70.513" viewBox="0 0 70.513 70.513">
  <defs>
    <clipPath id="clip-path">
      <path id="SVGID_1_" d="M0,0H70.513V70.513H0Z" fill="#fff"/>
    </clipPath>
  </defs>
  <g id="Group_21" data-name="Group 21" clip-path="url(#clip-path)">
    <g id="Group_11" data-name="Group 11" transform="translate(13.162 2.938)">
      <path id="Path_135" data-name="Path 135" d="M15.9,68.665c0-.118-3.173-15.513-4.231-21.389a24.524,24.524,0,0,1-.47-5.053,30.42,30.42,0,0,1,2.233-11.517l3.408-8.462A23.431,23.431,0,0,0,18.6,13.194,22.793,22.793,0,0,0,17.076,4.85l-.47-1.293,2.7-1.058.47,1.293a28.789,28.789,0,0,1,1.645,9.4,27.176,27.176,0,0,1-2,10.107l-3.408,8.462a28.394,28.394,0,0,0-2,10.342,27.5,27.5,0,0,0,.353,4.466C15.548,52.447,18.6,67.842,18.6,67.96Z" transform="translate(-11.2 -2.5)" fill="#fff"/>
    </g>
    <g id="Group_12" data-name="Group 12" transform="translate(33.729 23.504)">
      <path id="Path_136" data-name="Path 136" d="M31.638,20H28.7v2.938h2.938Z" transform="translate(-28.7 -20)" fill="#fff"/>
    </g>
    <g id="Group_13" data-name="Group 13" transform="translate(17.041 28.323)">
      <path id="Path_137" data-name="Path 137" d="M32.716,29.506A55.525,55.525,0,0,1,14.5,26.921l.94-2.821a52.114,52.114,0,0,0,17.276,2.468A52.114,52.114,0,0,0,49.992,24.1l.94,2.821C44.35,29.153,38.944,29.506,32.716,29.506Z" transform="translate(-14.5 -24.1)" fill="#fff"/>
    </g>
    <g id="Group_14" data-name="Group 14" transform="translate(15.043 34.434)">
      <path id="Path_138" data-name="Path 138" d="M33.014,42.815l-.94-.823C25.845,36.7,19.851,34.236,12.8,32.121l.823-2.821c8.344,2.468,13.985,5.288,19.391,9.637C38.42,34.588,44.061,31.768,52.4,29.3l.823,2.821c-7.051,2.115-13.045,4.583-19.274,9.872Z" transform="translate(-12.8 -29.3)" fill="#fff"/>
    </g>
    <g id="Group_15" data-name="Group 15" transform="translate(33.846 46.068)">
      <path id="Path_139" data-name="Path 139" d="M28.8,39.2h2.938V62.234H28.8Z" transform="translate(-28.8 -39.2)" fill="#fff"/>
    </g>
    <g id="Group_16" data-name="Group 16" transform="translate(8.344 6.934)">
      <path id="Path_140" data-name="Path 140" d="M9.215,21.413l-2.115-2,5.759-5.759L7.1,7.9l2.115-2,7.756,7.756Z" transform="translate(-7.1 -5.9)" fill="#fff"/>
    </g>
    <g id="Group_17" data-name="Group 17" transform="translate(52.297 6.934)">
      <path id="Path_141" data-name="Path 141" d="M52.256,21.413,44.5,13.656,52.256,5.9l2.115,2-5.759,5.759,5.759,5.759Z" transform="translate(-44.5 -5.9)" fill="#fff"/>
    </g>
    <g id="Group_18" data-name="Group 18" transform="translate(54.295 13.28)">
      <path id="Path_142" data-name="Path 142" d="M46.2,11.3H62.418v2.938H46.2Z" transform="translate(-46.2 -11.3)" fill="#fff"/>
    </g>
    <g id="Group_19" data-name="Group 19" transform="translate(46.975 2.938)">
      <path id="Path_143" data-name="Path 143" d="M45.646,68.665l-2.821-.588c0-.118,3.173-15.513,4.231-21.389a27.5,27.5,0,0,0,.353-4.466,29.014,29.014,0,0,0-2-10.459L42,23.3A26.629,26.629,0,0,1,41.65,3.793L42.12,2.5l2.7,1.058-.47,1.293a24.643,24.643,0,0,0,.353,17.393l3.408,8.462a29.571,29.571,0,0,1,2.233,11.517,36.525,36.525,0,0,1-.353,5.053C48.7,53.152,45.646,68.43,45.646,68.665Z" transform="translate(-39.971 -2.5)" fill="#fff"/>
    </g>
    <g id="Group_20" data-name="Group 20" transform="translate(0 13.28)">
      <path id="Path_144" data-name="Path 144" d="M0,11.3H16.218v2.938H0Z" transform="translate(0 -11.3)" fill="#fff"/>
    </g>
  </g>
</svg>
