<svg xmlns="http://www.w3.org/2000/svg" width="52.316" height="70.513" viewBox="0 0 52.316 70.513">
  <g id="gallery" transform="translate(-9 -1)">
    <path id="Path_174" data-name="Path 174" d="M61.316,38.531A26.185,26.185,0,0,0,46.751,15.09a8.681,8.681,0,0,0,.918-3.854C47.668,5.591,42.056,1,35.158,1s-12.51,4.591-12.51,10.236a8.686,8.686,0,0,0,.919,3.854A26.184,26.184,0,0,0,9,38.531a22.1,22.1,0,0,0,1.137,7.008l1.19,3.569A6.234,6.234,0,0,0,16.392,59h.987A22.9,22.9,0,0,0,30.359,70.682a14.269,14.269,0,0,0,9.6,0A22.9,22.9,0,0,0,52.936,59h.987a6.234,6.234,0,0,0,5.066-9.895l1.19-3.569A22.1,22.1,0,0,0,61.316,38.531Zm-36.394-27.3c0-4.389,4.592-7.961,10.236-7.961s10.236,3.572,10.236,7.961a6.348,6.348,0,0,1-.729,2.933,26.059,26.059,0,0,0-19.012,0A6.336,6.336,0,0,1,24.922,11.236Zm-8.53,45.492a3.97,3.97,0,0,1-1.317-7.72l.053,1.119a23.07,23.07,0,0,0,1.294,6.6Zm22.8,11.812a12.066,12.066,0,0,1-8.068,0A20.646,20.646,0,0,1,17.4,50.018l-.374-7.847A28.085,28.085,0,0,0,35.158,28.54,28.085,28.085,0,0,0,53.289,42.17l-.374,7.847A20.646,20.646,0,0,1,39.192,68.54ZM53.924,56.728h-.031a23.07,23.07,0,0,0,1.294-6.6l.053-1.119a3.97,3.97,0,0,1-1.317,7.715Zm4.094-11.909-.867,2.6a6.212,6.212,0,0,0-1.8-.755l.191-4.015,1.66.334.455-2.23-3.114-.629A25.79,25.79,0,0,1,36.193,25.55a1.137,1.137,0,0,0-2.07,0A25.79,25.79,0,0,1,15.775,40.123l-3.112.627.449,2.23,1.66-.334.191,4.015a6.212,6.212,0,0,0-1.8.755l-.863-2.6a19.858,19.858,0,0,1-1.024-6.288,23.883,23.883,0,0,1,47.767,0,19.859,19.859,0,0,1-1.024,6.288Z" transform="translate(0 0)" fill="#fff"/>
    <path id="Path_175" data-name="Path 175" d="M25.663,46.625a5.375,5.375,0,0,0,4.482-2.4l1.013-1.519-1.892-1.262-1.013,1.519a3.112,3.112,0,0,1-5.179,0L22.06,41.445l-1.892,1.262,1.013,1.519A5.375,5.375,0,0,0,25.663,46.625Z" transform="translate(1.533 5.553)" fill="#fff"/>
    <path id="Path_176" data-name="Path 176" d="M44.146,44.227l1.013-1.519-1.892-1.262-1.013,1.519a3.112,3.112,0,0,1-5.179,0L36.06,41.445l-1.892,1.262,1.013,1.519a5.387,5.387,0,0,0,8.964,0Z" transform="translate(3.456 5.553)" fill="#fff"/>
    <path id="Path_177" data-name="Path 177" d="M30.9,49.293,29.293,50.9l.332.333a3.884,3.884,0,0,0,5.492,0l.333-.333-1.608-1.608-.333.333a1.646,1.646,0,0,1-2.275,0Z" transform="translate(2.786 6.631)" fill="#fff"/>
    <path id="Path_178" data-name="Path 178" d="M28,54h9.1v2.275H28Z" transform="translate(2.609 7.277)" fill="#fff"/>
    <path id="Path_179" data-name="Path 179" d="M20,48h2.275v2.275H20Z" transform="translate(1.51 6.453)" fill="#fff"/>
    <path id="Path_180" data-name="Path 180" d="M24,50h2.275v2.275H24Z" transform="translate(2.06 6.728)" fill="#fff"/>
    <path id="Path_181" data-name="Path 181" d="M45,39h2.275v2.275H45Z" transform="translate(4.943 5.218)" fill="#fff"/>
    <path id="Path_182" data-name="Path 182" d="M30,30h2.275v2.275H30Z" transform="translate(2.883 3.982)" fill="#fff"/>
    <path id="Path_183" data-name="Path 183" d="M39,36h2.275v2.275H39Z" transform="translate(4.119 4.806)" fill="#fff"/>
    <path id="Path_184" data-name="Path 184" d="M18,39h2.275v2.275H18Z" transform="translate(1.236 5.218)" fill="#fff"/>
    <path id="Path_185" data-name="Path 185" d="M29,36h2.275v2.275H29Z" transform="translate(2.746 4.806)" fill="#fff"/>
    <path id="Path_186" data-name="Path 186" d="M40,52h2.275v2.275H40Z" transform="translate(4.256 7.003)" fill="#fff"/>
    <path id="Path_187" data-name="Path 187" d="M34,46h2.275v2.275H34Z" transform="translate(3.433 6.179)" fill="#fff"/>
    <path id="Path_188" data-name="Path 188" d="M27,57h2.275v2.275H27Z" transform="translate(2.471 7.689)" fill="#fff"/>
    <path id="Path_189" data-name="Path 189" d="M42,47h2.275v2.275H42Z" transform="translate(4.531 6.316)" fill="#fff"/>
  </g>
</svg>
