<svg xmlns="http://www.w3.org/2000/svg" width="49.579" height="70.513" viewBox="0 0 49.579 70.513">
  <g id="blood-test" transform="translate(-19)">
    <path id="Path_208" data-name="Path 208" d="M66.849,43.993V18.1a1.105,1.105,0,0,0-1.1-1.1H37.1A1.105,1.105,0,0,0,36,18.1V43.993a1.105,1.105,0,0,0,1.1,1.1H65.748A1.105,1.105,0,0,0,66.849,43.993Zm-2.2-1.1H38.2V19.2H64.646Z" transform="translate(-7.635 -7.635)" fill="#fff"/>
    <g id="Group_39" data-name="Group 39" transform="translate(19)">
      <path id="Path_209" data-name="Path 209" d="M55.909,0H31.67A12.672,12.672,0,0,0,19,12.67V44.621a12.672,12.672,0,0,0,12.67,12.67h4.407V69.411a1.105,1.105,0,0,0,1.1,1.1H50.4a1.105,1.105,0,0,0,1.1-1.1V57.292h4.407a12.672,12.672,0,0,0,12.67-12.67V12.67A12.672,12.672,0,0,0,55.909,0ZM49.3,68.309H38.281V48.478H49.3ZM66.376,44.621A10.462,10.462,0,0,1,55.909,55.088H51.5V48.478h2.2a1.1,1.1,0,1,0,0-2.2H33.874a1.1,1.1,0,1,0,0,2.2h2.2v6.611H31.67A10.462,10.462,0,0,1,21.2,44.621V12.67A10.462,10.462,0,0,1,31.67,2.2H55.909A10.462,10.462,0,0,1,66.376,12.67Z" transform="translate(-19)" fill="#fff"/>
      <path id="Path_210" data-name="Path 210" d="M61.305,114.611A3.305,3.305,0,1,0,58,111.305,3.315,3.315,0,0,0,61.305,114.611Zm0-4.407a1.1,1.1,0,1,1-1.1,1.1A1.105,1.105,0,0,1,61.305,110.2Z" transform="translate(-36.516 -48.505)" fill="#fff"/>
    </g>
    <path id="Path_211" data-name="Path 211" d="M59.15,44.116a5.948,5.948,0,0,0,5.95-5.894c0-6-5.013-10.687-5.178-10.852a1.116,1.116,0,0,0-1.542.055c-.22.22-5.178,5.454-5.178,10.8a5.948,5.948,0,0,0,5.95,5.894ZM59.2,29.793c1.267,1.487,3.691,4.738,3.691,8.428a3.746,3.746,0,0,1-7.492,0C55.4,34.862,57.883,31.336,59.2,29.793Z" transform="translate(-15.36 -12.165)" fill="#fff"/>
  </g>
</svg>
