<svg xmlns="http://www.w3.org/2000/svg" width="70.513" height="70.513" viewBox="0 0 70.513 70.513">
  <g id="insulin" transform="translate(-3.961 -3.962)">
    <path id="Path_190" data-name="Path 190" d="M73.738,11.374,67.062,4.7a2.518,2.518,0,0,0-3.557,0L61.056,7.147a2.572,2.572,0,0,0-3.831-.274L33.638,30.459a2.573,2.573,0,0,0,.275,3.83L14.554,53.649A2.513,2.513,0,0,0,14.3,56.9l-1.79,1.79a2.526,2.526,0,0,0,0,3.556l.95.95L4.329,72.329a1.257,1.257,0,1,0,1.778,1.778l9.134-9.134.95.95a2.526,2.526,0,0,0,3.556,0l1.79-1.79a2.5,2.5,0,0,0,3.25-.251L44.146,44.523a2.573,2.573,0,0,0,3.831.275L71.564,21.211a2.574,2.574,0,0,0-.275-3.831l2.449-2.449a2.518,2.518,0,0,0,0-3.557ZM17.971,64.145l-3.68-3.679L16.053,58.7l3.678,3.678ZM39.919,45.194l-1.372-1.372a1.257,1.257,0,0,0-1.778,0c-1.161,1.237.648,2.325,1.372,3.15l-2.449,2.45c-.828-.726-1.913-2.532-3.151-1.372-1.16,1.236.648,2.325,1.373,3.15L31.464,53.65c-.827-.727-1.916-2.532-3.151-1.372-1.16,1.234.647,2.326,1.373,3.151l-2.449,2.449c-.825-.728-1.918-2.532-3.151-1.373-1.16,1.231.647,2.328,1.373,3.151l-2.449,2.45-6.678-6.678L35.691,36.068l6.677,6.677ZM46.2,43.02c-1.648-1.65-9.133-9.134-10.783-10.783L59,8.65,69.786,19.433ZM69.511,15.6,62.834,8.925l2.45-2.449,6.676,6.677Z" transform="translate(0 0)" fill="#fff"/>
    <path id="Path_191" data-name="Path 191" d="M47.866,12.566l-6.979,6.978a1.257,1.257,0,0,0,0,1.778l4.694,4.694a1.257,1.257,0,0,0,1.778,0l6.978-6.978a1.257,1.257,0,0,0,0-1.778l-4.694-4.694a1.257,1.257,0,0,0-1.778,0Zm3.805,5.584-5.2,5.2-2.916-2.916,5.2-5.2Z" transform="translate(9.411 2.12)" fill="#fff"/>
    <path id="Path_192" data-name="Path 192" d="M40.163,21.547a1.257,1.257,0,0,0-1.778,0l-4.532,4.532a1.257,1.257,0,0,0,0,1.778l4.694,4.694a1.257,1.257,0,0,0,1.778,0l4.532-4.532a1.257,1.257,0,0,0,0-1.778Zm-.726,8.337L36.52,26.967l2.754-2.754L42.19,27.13Z" transform="translate(7.6 4.432)" fill="#fff"/>
  </g>
</svg>
