<svg xmlns="http://www.w3.org/2000/svg" width="56" height="67.582" viewBox="0 0 56 67.582">
  <g id="salad" transform="translate(-43.872 0)">
    <g id="Group_2" data-name="Group 2" transform="translate(43.872 0)">
      <path id="Path_6" data-name="Path 6" d="M290.324,150.781a.99.99,0,1,0,1.4,1.4l1.064-1.064a.99.99,0,1,0-1.4-1.4Z" transform="translate(-257.542 -129.703)" fill="#2a2a2a"/>
      <path id="Path_7" data-name="Path 7" d="M277.143,123.674h1.5a.99.99,0,1,0,0-1.98h-1.5a.99.99,0,1,0,0,1.98Z" transform="translate(-245.493 -105.631)" fill="#2a2a2a"/>
      <path id="Path_8" data-name="Path 8" d="M108.079,15.831A10.82,10.82,0,0,0,123.341.57a1.651,1.651,0,0,0-2.415-.086l-2.964,2.964a.99.99,0,0,0,1.4,1.4l2.709-2.709a8.84,8.84,0,0,1-12.423,12.423l6.414-6.414a.99.99,0,0,0-1.4-1.4l-6.669,6.669a1.651,1.651,0,0,0,.086,2.415Z" transform="translate(-99.11 0)" fill="#2a2a2a"/>
      <path id="Path_9" data-name="Path 9" d="M182.7,76.623a.99.99,0,0,0,0,1.4l.949.949a.99.99,0,0,0,1.4-1.4l-.949-.949A.99.99,0,0,0,182.7,76.623Z" transform="translate(-164.119 -66.258)" fill="#2a2a2a"/>
      <path id="Path_10" data-name="Path 10" d="M158.658,85.737a.99.99,0,0,0-.99.99v1.342a.99.99,0,1,0,1.98,0V86.727A.99.99,0,0,0,158.658,85.737Z" transform="translate(-142.647 -74.42)" fill="#2a2a2a"/>
      <path id="Path_11" data-name="Path 11" d="M194.237,54.171h1.342a.99.99,0,1,0,0-1.98h-1.342a.99.99,0,0,0,0,1.98Z" transform="translate(-173.53 -45.302)" fill="#2a2a2a"/>
      <path id="Path_12" data-name="Path 12" d="M96.553,97.5H94.547c-.038-.149-.081-.3-.132-.448,3.271-.759,5.456-2.743,5.456-5.087a4.787,4.787,0,0,0-2.691-4.006c2.959-3.22,3.357-7.748.838-10.267a5.471,5.471,0,0,0-1.668-1.137,9.406,9.406,0,0,0-1.28-4.5.99.99,0,0,0-1.709,1,7.415,7.415,0,0,1,.975,3,7.316,7.316,0,0,0-1.421.026A6.015,6.015,0,0,0,82.6,72.631l-1-1a7.426,7.426,0,0,1,8.812-1.407.99.99,0,1,0,.927-1.749A9.4,9.4,0,0,0,80.2,70.233l-4.567-4.567a1.645,1.645,0,0,0-1.217-.482,1.665,1.665,0,0,0-1.192.562,12.008,12.008,0,0,0-2.555,11.108,5.314,5.314,0,0,0-2.9,2.521,9.314,9.314,0,0,0-5.1-2.46,6.52,6.52,0,0,0-3.642.531A9.408,9.408,0,1,0,48.265,92.865a4.613,4.613,0,0,0-.493,1.526,4.778,4.778,0,0,0,.671,3.1H46.182a2.325,2.325,0,0,0-1.678.72,2.273,2.273,0,0,0-.629,1.7,27.543,27.543,0,0,0,16.994,24.028,2.93,2.93,0,0,0,1.124.22h18.75a2.931,2.931,0,0,0,1.124-.22A27.543,27.543,0,0,0,98.861,99.912a2.273,2.273,0,0,0-.629-1.7,2.325,2.325,0,0,0-1.678-.72ZM86.94,72.758a4.046,4.046,0,0,1,4.032,3.783,9.663,9.663,0,0,0-2.823,1.637L84,74.031A4.028,4.028,0,0,1,86.94,72.758Zm-.392,7.858a.99.99,0,0,0,1.695.271,8.5,8.5,0,0,1,.591-.659c2.461-2.461,5.953-2.973,7.784-1.142s1.319,5.323-1.142,7.784a8.47,8.47,0,0,1-.649.583.99.99,0,0,0,.272,1.694c1.722.655,2.793,1.733,2.793,2.812,0,1.562-2.161,3-5.027,3.352a.99.99,0,0,0-.738,1.477,5.276,5.276,0,0,1,.342.707h-.384l-6.238-6.238,5.618-5.618a.99.99,0,0,0-1.4-1.4l-5.618,5.618L79.9,85.31a1.7,1.7,0,0,0-2.477.086A11.837,11.837,0,0,0,75.4,88.658a8.157,8.157,0,0,1-.515-2.85,3.014,3.014,0,0,1,1.134-2.593,1.9,1.9,0,0,1,.961-.238,3.981,3.981,0,0,1,1.928.6.99.99,0,0,0,1.476-.737c.352-2.858,1.792-5.014,3.35-5.014,1.079,0,2.157,1.07,2.812,2.793Zm2.527,16.669q-.173.113-.354.21H84.172a4.81,4.81,0,0,1-1.756-6.869ZM69.386,92.38A6.031,6.031,0,0,0,63.433,97.5H62.008a7.433,7.433,0,0,1,14.756,0H75.339A6.031,6.031,0,0,0,69.386,92.38ZM73.324,97.5H65.448a4.041,4.041,0,0,1,7.876,0Zm3.2-5.228a9.9,9.9,0,0,1,2.2-5.338L80.995,89.2a6.8,6.8,0,0,0,.146,8.29H78.757A9.374,9.374,0,0,0,76.52,92.267Zm-2.031-24.95L83.073,75.9c-2.047.369-3.734,2.434-4.422,5.385a5.453,5.453,0,0,0-1.2-.268,4.392,4.392,0,0,0-.909,0c-.772-2.225-2.163-3.78-3.818-4.211A10.037,10.037,0,0,1,74.489,67.318ZM58.895,79.928a4.142,4.142,0,0,1,3.534-1.049,7.417,7.417,0,0,1,4.251,2.191,8.481,8.481,0,0,1,.592.659.99.99,0,0,0,1.695-.271c.655-1.723,1.733-2.794,2.812-2.794,1.176,0,2.285,1.229,2.909,3.062a4.909,4.909,0,0,0-1.781,4.048,10.6,10.6,0,0,0,.945,4.34,9.357,9.357,0,0,0-4.465-1.128h-.033l-3.905-3.905a.99.99,0,1,0-1.4,1.4l2.843,2.843a9.453,9.453,0,0,0-6.5,6.283c-1.672-.639-2.773-1.691-2.773-2.805,0-1.079,1.07-2.156,2.793-2.812a.99.99,0,0,0,.272-1.694,8.426,8.426,0,0,1-.649-.583,7.419,7.419,0,0,1-2.191-4.251A4.142,4.142,0,0,1,58.895,79.928Zm-7.744,8.4A4.038,4.038,0,1,1,55.891,81.8a6.732,6.732,0,0,0-.065.759,4.738,4.738,0,0,0-2.794.945A5.294,5.294,0,0,0,51.151,88.333ZM53.117,91.8a.99.99,0,0,0,.7-1.445c-1.1-2.034-.924-4.25.418-5.27a2.852,2.852,0,0,1,1.8-.557,9.525,9.525,0,0,0,2.3,4.268,4.787,4.787,0,0,0-2.69,4.006c0,2.013,1.612,3.759,4.139,4.693H50.966a3.247,3.247,0,0,1-1.232-2.836c.191-1.4,1.519-2.524,3.384-2.86Zm-7.158-6.823a7.43,7.43,0,0,1,11.389-6.292,5.534,5.534,0,0,0-.823,1.154,6.019,6.019,0,1,0-5.642,10.611,6.279,6.279,0,0,0-1.366.87,7.436,7.436,0,0,1-3.559-6.342ZM96.382,103.7H87.051a.99.99,0,1,0,0,1.98h8.837a25.6,25.6,0,0,1-14.777,16.428.96.96,0,0,1-.368.07H61.993a.96.96,0,0,1-.368-.07,25.6,25.6,0,0,1-14.777-16.428H82.3a.99.99,0,0,0,0-1.98H46.353a25.549,25.549,0,0,1-.5-3.891.308.308,0,0,1,.087-.232.333.333,0,0,1,.243-.1H96.553a.333.333,0,0,1,.243.1.308.308,0,0,1,.087.232,25.549,25.549,0,0,1-.5,3.892Z" transform="translate(-43.872 -56.579)" fill="#2a2a2a"/>
      <path id="Path_13" data-name="Path 13" d="M317.035,9.8a1.682,1.682,0,0,0,.435-.058L323.967,8h0a1.654,1.654,0,0,0,1.21-1.809A7.19,7.19,0,0,0,319,.014a1.655,1.655,0,0,0-1.809,1.21l-1.741,6.5A1.652,1.652,0,0,0,317.035,9.8Zm1.991-7.777a5.212,5.212,0,0,1,4.142,4.142l-5.659,1.516Z" transform="translate(-279.552 0)" fill="#2a2a2a"/>
    </g>
  </g>
</svg>
