<svg xmlns="http://www.w3.org/2000/svg" width="19.915" height="19.917" viewBox="0 0 19.915 19.917">
  <g id="shopping-basket" transform="translate(-11.025 -11)">
    <g id="Group_1" data-name="Group 1" transform="translate(11.025 11)">
      <path id="Path_2" data-name="Path 2" d="M30.32,18.621a2.124,2.124,0,0,0-1.671-.845H27.182C27.044,14.012,24.316,11,20.983,11s-6.061,3.012-6.2,6.776H13.317a2.124,2.124,0,0,0-1.671.845,3.019,3.019,0,0,0-.541,2.549l1.76,7.756a2.384,2.384,0,0,0,2.211,1.992H26.885A2.38,2.38,0,0,0,29.1,28.926L30.86,21.17A3.019,3.019,0,0,0,30.32,18.621Zm-9.337-5.963c2.423,0,4.406,2.268,4.536,5.118H16.447C16.577,14.931,18.56,12.658,20.983,12.658Zm8.26,8.142-1.76,7.76c-.089.4-.346.7-.593.7H15.077c-.248,0-.5-.3-.593-.7l-1.76-7.76c-.093-.411-.15-1.366.593-1.366H28.649c.8,0,.687.955.593,1.366Z" transform="translate(-11.025 -11)" fill="#508345"/>
      <path id="Path_3" data-name="Path 3" d="M135.129,259.1a.827.827,0,0,0-.829.829v5.183a.829.829,0,1,0,1.658,0v-5.183A.827.827,0,0,0,135.129,259.1Z" transform="translate(-129.289 -249.015)" fill="#508345"/>
      <path id="Path_4" data-name="Path 4" d="M234.029,259.1a.827.827,0,0,0-.829.829v5.183a.829.829,0,1,0,1.658,0v-5.183A.833.833,0,0,0,234.029,259.1Z" transform="translate(-224.169 -249.015)" fill="#508345"/>
      <path id="Path_5" data-name="Path 5" d="M332.829,259.1a.827.827,0,0,0-.829.829v5.183a.829.829,0,1,0,1.658,0v-5.183A.83.83,0,0,0,332.829,259.1Z" transform="translate(-318.953 -249.015)" fill="#508345"/>
    </g>
  </g>
</svg>
