<svg xmlns="http://www.w3.org/2000/svg" width="219.494" height="219.494" viewBox="0 0 219.494 219.494">
  <g id="party-popper" transform="translate(-1.004 0.003)">
    <path id="Path_68" data-name="Path 68" d="M177.061,131.809,10.871,187.342a7.489,7.489,0,0,1-9.479-9.479L56.925,11.673Z" transform="translate(0 31.761)" fill="#fdc70e"/>
    <path id="Path_69" data-name="Path 69" d="M136.169,131.838s-24.476-5.543-69.51-50.622c-43.84-43.8-50.313-68.231-50.622-69.507v-.045s24.521,5.547,69.57,50.6S136.169,131.838,136.169,131.838Z" transform="translate(40.892 31.739)" fill="#d39518"/>
    <path id="Path_70" data-name="Path 70" d="M61.026,89.164,36.4,97.386C31.227,92.773,25.721,87.6,19.843,81.724S8.793,70.34,4.18,65.168L12.4,40.54c6.25,7.552,13.877,16,23.252,25.373S53.474,82.914,61.026,89.164Z" transform="translate(8.64 110.288)" fill="#2167d8"/>
    <path id="Path_71" data-name="Path 71" d="M112.125,115.788l-26.451,8.817A307.269,307.269,0,0,1,45.011,89.634,307.271,307.271,0,0,1,10.04,48.971L18.857,22.52a276.791,276.791,0,0,0,41.965,51.3,276.791,276.791,0,0,0,51.3,41.965Z" transform="translate(24.581 61.268)" fill="#d3374e"/>
    <path id="Path_72" data-name="Path 72" d="M28.253,69.22a3.72,3.72,0,0,1-2.63-6.351,45.388,45.388,0,0,0,8.78-54.6,3.72,3.72,0,1,1,6.377-3.81,53,53,0,0,1-9.9,63.684,3.694,3.694,0,0,1-2.63,1.071Z" transform="translate(64.007 6.704)" fill="#2167d8"/>
    <path id="Path_73" data-name="Path 73" d="M31.133,20.358a3.72,3.72,0,0,1-2.63-1.089l-6.228-6.225a3.721,3.721,0,1,1,5.264-5.261l6.224,6.224a3.72,3.72,0,0,1-2.63,6.351Z" transform="translate(54.903 18.213)" fill="#23af6f"/>
    <path id="Path_74" data-name="Path 74" d="M38.293,18.685a3.72,3.72,0,0,1-3.72-3.72V8.74a3.72,3.72,0,1,1,7.441,0v6.224A3.72,3.72,0,0,1,38.293,18.685Z" transform="translate(91.319 13.663)" fill="#d3374e"/>
    <path id="Path_75" data-name="Path 75" d="M44.521,20.828H38.293a3.72,3.72,0,0,1,0-7.441h6.228a3.72,3.72,0,0,1,0,7.441Z" transform="translate(91.319 36.424)" fill="#23af6f"/>
    <path id="Path_76" data-name="Path 76" d="M43.313,52.08a3.72,3.72,0,0,1-2.63-6.351,53.007,53.007,0,0,1,63.688-9.9,3.72,3.72,0,0,1-3.821,6.38A44.893,44.893,0,0,0,45.943,50.99a3.72,3.72,0,0,1-2.63,1.09Z" transform="translate(104.975 79.875)" fill="#2167d8"/>
    <path id="Path_77" data-name="Path 77" d="M59.581,48.8a3.72,3.72,0,0,1-2.63-1.086l-6.228-6.228a3.72,3.72,0,1,1,5.261-5.261l6.227,6.224a3.72,3.72,0,0,1-2.63,6.351Z" transform="translate(132.287 95.599)" fill="#23af6f"/>
    <path id="Path_78" data-name="Path 78" d="M61.248,30.868h-6.22a3.72,3.72,0,0,1,0-7.441h6.22a3.72,3.72,0,0,1,0,7.441Z" transform="translate(136.84 63.736)" fill="#d3374e"/>
    <path id="Path_79" data-name="Path 79" d="M48.333,35.421a3.72,3.72,0,0,1-3.72-3.72V25.473a3.72,3.72,0,1,1,7.441,0V31.7A3.72,3.72,0,0,1,48.333,35.421Z" transform="translate(118.631 59.182)" fill="#d3374e"/>
    <path id="Path_80" data-name="Path 80" d="M39.967,64a3.72,3.72,0,0,1-2.63-6.351,15.108,15.108,0,0,1,11.965-4.2h.082a7.372,7.372,0,0,0,8.635-8.713A14.658,14.658,0,0,1,74.186,28.568a7.441,7.441,0,0,0,8.761-8.761A15.131,15.131,0,0,1,87.155,7.834,3.72,3.72,0,1,1,92.4,13.11a7.917,7.917,0,0,0-2.028,6.7,14.665,14.665,0,0,1-16.18,16.18,7.415,7.415,0,0,0-8.728,8.746,15.082,15.082,0,0,1-4.2,11.965,15.272,15.272,0,0,1-11.964,4.2h-.086A7.79,7.79,0,0,0,42.6,62.91,3.72,3.72,0,0,1,39.967,64Z" transform="translate(95.873 18.148)" fill="#fdc70e"/>
    <g id="Group_4" data-name="Group 4" transform="translate(144.566 -0.003)">
      <path id="Path_81" data-name="Path 81" d="M43.319,38.572a3.72,3.72,0,0,1-3.441-5.138,34.495,34.495,0,0,0,.156-27.958A3.722,3.722,0,1,1,46.6,1.964a41.946,41.946,0,0,1,.164,34.3,3.72,3.72,0,0,1-3.441,2.3Z" transform="translate(-39.592 0.003)" fill="#d3374e"/>
      <path id="Path_82" data-name="Path 82" d="M53.356,28.268a3.72,3.72,0,0,1-1.417-7.162,41.913,41.913,0,0,1,34.309.164,3.722,3.722,0,0,1-3.512,6.563,34.476,34.476,0,0,0-27.962.156,3.743,3.743,0,0,1-1.417.279Z" transform="translate(-12.282 47.659)" fill="#d3374e"/>
    </g>
  </g>
</svg>
